<svg id="svg" version="1.1" xmlns="http://www.w3.org/2000/svg" xmlns:xlink="http://www.w3.org/1999/xlink" width="400" height="400" viewBox="0, 0, 400,400"><g id="svgg"><path id="path0" d="M137.024 91.521 C 133.227 93.835,134.790 99.500,139.226 99.500 C 143.639 99.500,145.382 93.814,141.642 91.621 C 140.261 90.813,138.257 90.769,137.024 91.521 M321.904 109.028 C 314.065 110.868,312.194 121.383,318.936 125.709 C 325.044 129.629,333.082 125.248,333.082 118.000 C 333.082 112.137,327.556 107.701,321.904 109.028 M345.846 109.088 C 339.064 110.815,336.630 119.081,341.388 124.221 C 345.828 129.017,353.499 127.814,356.385 121.870 C 359.659 115.126,353.147 107.228,345.846 109.088 M325.475 112.612 C 327.273 113.542,327.655 117.676,325.952 117.768 C 325.772 117.777,326.070 117.948,326.614 118.147 C 328.465 118.825,329.394 120.294,329.208 122.250 L 329.125 123.125 324.000 123.125 L 318.875 123.125 318.792 122.398 C 318.569 120.441,319.585 118.719,321.260 118.218 L 322.232 117.926 321.616 117.194 C 319.493 114.670,322.515 111.082,325.475 112.612 M349.394 113.386 C 349.485 113.873,349.631 114.235,349.717 114.190 C 351.297 113.375,351.219 113.377,351.999 114.124 L 352.739 114.833 352.233 115.653 L 351.726 116.473 352.625 116.642 C 353.714 116.846,353.928 119.033,352.875 119.200 C 351.747 119.379,351.691 119.465,352.222 120.210 L 352.729 120.922 351.927 121.694 C 351.182 122.412,351.081 122.442,350.500 122.117 C 349.629 121.630,349.561 121.653,349.375 122.500 C 349.222 123.196,349.130 123.250,348.099 123.250 C 347.064 123.250,346.977 123.198,346.837 122.500 C 346.665 121.639,346.479 121.589,345.599 122.165 C 344.589 122.827,343.220 121.410,343.886 120.394 C 344.352 119.682,344.212 119.359,343.375 119.210 C 342.664 119.083,342.473 116.752,343.174 116.746 C 344.152 116.738,344.410 116.338,343.944 115.549 C 343.285 114.434,344.606 113.159,345.731 113.824 C 346.679 114.384,346.668 114.388,346.859 113.375 C 347.114 112.013,349.138 112.022,349.394 113.386 M158.375 114.965 C 155.448 116.771,154.183 119.615,155.653 121.085 C 156.507 121.939,157.267 122.058,161.224 121.958 L 164.525 121.875 166.387 119.969 C 168.717 117.585,168.896 115.716,166.882 114.799 C 165.736 114.276,159.286 114.402,158.375 114.965 M172.853 116.288 C 170.296 118.767,170.100 120.487,172.250 121.562 C 173.529 122.201,194.810 122.232,196.149 121.597 C 198.525 120.470,200.295 117.555,199.546 116.002 C 198.816 114.488,198.989 114.508,186.286 114.504 L 174.697 114.500 172.853 116.288 M328.284 146.040 C 327.822 146.362,320.098 155.344,311.120 166.000 C 291.746 188.995,292.993 186.250,301.922 186.250 L 308.038 186.250 308.769 186.981 C 309.469 187.680,309.500 187.807,309.500 189.967 C 309.500 193.131,309.879 193.569,312.791 193.767 C 316.900 194.046,316.750 194.474,316.751 182.454 C 316.752 176.462,316.854 172.262,317.011 171.695 C 317.491 169.967,317.283 170.000,327.791 170.000 C 332.977 170.000,337.266 169.916,337.322 169.813 C 337.473 169.534,333.604 147.910,333.303 147.353 C 332.351 145.586,329.871 144.937,328.284 146.040 M240.620 178.916 C 240.329 179.207,240.249 179.559,240.356 180.091 C 240.714 181.884,243.250 181.694,243.250 179.875 C 243.250 178.537,241.600 177.936,240.620 178.916 M346.014 186.108 C 345.851 186.304,345.753 186.895,345.796 187.420 L 345.875 188.375 347.125 188.375 L 348.375 188.375 348.454 187.420 C 348.552 186.228,348.171 185.750,347.125 185.750 C 346.677 185.750,346.178 185.911,346.014 186.108 M173.167 188.917 C 173.075 189.008,173.000 189.492,173.000 189.992 C 173.000 191.136,172.638 191.500,171.500 191.500 C 170.138 191.500,169.486 193.121,170.152 194.855 C 170.394 195.486,176.007 195.433,176.586 194.793 C 177.008 194.326,177.206 190.077,176.848 189.145 C 176.692 188.738,173.541 188.542,173.167 188.917 M181.550 194.550 C 180.612 195.488,181.387 197.000,182.806 197.000 C 184.146 197.000,184.753 195.166,183.654 194.441 C 183.213 194.151,181.880 194.220,181.550 194.550 M241.026 195.725 L 240.250 196.451 240.250 204.867 C 240.250 215.179,240.178 215.000,244.330 215.000 C 247.913 215.000,248.500 214.390,248.500 210.668 C 248.500 208.091,248.386 207.856,246.900 207.375 L 246.125 207.125 246.000 201.875 C 245.905 197.878,245.789 196.495,245.513 196.080 C 244.642 194.768,242.254 194.579,241.026 195.725 M339.509 195.984 C 339.349 196.282,339.250 198.975,339.250 203.000 C 339.250 210.583,339.230 210.500,341.084 210.500 C 343.072 210.500,343.000 210.782,343.000 203.000 C 343.000 197.967,342.919 196.019,342.700 195.800 C 342.181 195.281,339.812 195.418,339.509 195.984 M295.893 200.643 C 295.419 201.117,295.352 203.502,295.800 203.950 C 296.329 204.479,299.186 204.336,299.491 203.766 C 300.472 201.933,299.579 200.250,297.625 200.250 C 296.741 200.250,296.152 200.383,295.893 200.643 M283.556 206.139 C 283.004 206.525,283.000 206.580,283.000 213.484 C 283.000 221.514,282.855 221.061,285.389 220.949 C 287.165 220.871,287.235 220.823,287.660 219.386 C 287.839 218.784,288.078 218.599,288.963 218.384 C 290.966 217.896,291.250 217.273,291.250 213.361 C 291.250 209.782,290.991 209.000,289.806 209.000 C 289.039 209.000,288.274 208.269,288.009 207.282 C 287.615 205.819,284.979 205.142,283.556 206.139 M62.555 213.069 C 60.671 214.971,60.678 214.785,62.430 216.555 C 64.187 218.332,64.056 218.336,65.945 216.431 C 67.829 214.529,67.822 214.715,66.070 212.945 C 64.313 211.168,64.444 211.164,62.555 213.069 M96.073 212.585 L 94.925 213.669 95.510 214.460 C 96.266 215.482,96.440 215.460,97.698 214.178 C 99.893 211.942,98.352 210.431,96.073 212.585 M90.250 214.954 C 90.250 215.748,90.415 216.126,91.026 216.738 C 91.685 217.396,91.779 217.641,91.647 218.343 C 91.350 219.928,92.705 221.045,93.369 219.762 C 94.512 217.551,93.281 214.691,90.938 214.115 C 90.273 213.952,90.250 213.980,90.250 214.954 M55.893 222.393 C 55.425 222.861,55.385 223.535,55.800 223.950 C 56.348 224.498,60.431 224.346,60.741 223.766 C 61.419 222.499,60.716 222.000,58.250 222.000 C 56.798 222.000,56.183 222.102,55.893 222.393 M146.821 227.925 C 144.971 228.283,144.163 232.967,145.647 234.731 C 146.925 236.250,151.938 235.807,152.646 234.113 C 154.436 229.830,151.745 226.972,146.821 227.925 M65.300 230.300 C 65.135 230.465,65.000 230.836,65.000 231.125 C 65.000 232.207,65.272 232.250,72.125 232.250 C 78.978 232.250,79.250 232.207,79.250 231.125 C 79.250 230.043,78.978 230.000,72.125 230.000 C 67.383 230.000,65.518 230.082,65.300 230.300 M171.561 231.539 C 170.569 232.531,171.438 234.076,172.920 233.954 L 173.875 233.875 173.875 232.625 L 173.875 231.375 172.874 231.301 C 172.312 231.260,171.736 231.364,171.561 231.539 M260.428 231.405 C 259.903 231.931,260.252 233.741,260.910 233.906 C 262.207 234.232,262.875 233.751,262.875 232.494 L 262.875 231.375 261.741 231.301 C 261.117 231.260,260.526 231.307,260.428 231.405 M353.397 234.519 C 352.781 235.252,352.750 235.429,352.750 238.250 C 352.750 241.071,352.781 241.248,353.397 241.981 L 354.044 242.750 357.363 242.750 C 361.950 242.750,362.000 242.701,362.000 238.250 C 362.000 233.799,361.950 233.750,357.363 233.750 L 354.044 233.750 353.397 234.519 M204.096 235.379 C 202.798 236.047,202.750 236.377,202.750 244.633 L 202.750 252.242 203.474 253.052 C 204.829 254.568,208.733 254.346,209.758 252.694 C 210.303 251.815,210.260 237.505,209.708 236.437 C 209.079 235.219,205.658 234.574,204.096 235.379 M93.178 235.655 C 93.080 235.753,93.000 236.321,93.000 236.917 L 93.000 238.000 94.514 238.000 L 96.027 238.000 95.951 236.813 L 95.875 235.625 94.615 235.551 C 93.923 235.511,93.276 235.558,93.178 235.655 M60.550 238.300 C 60.135 238.715,60.175 239.389,60.643 239.857 C 61.321 240.535,73.753 240.437,74.376 239.749 C 74.751 239.335,74.780 239.140,74.545 238.624 L 74.261 238.000 67.555 238.000 C 62.673 238.000,60.768 238.082,60.550 238.300 M93.177 239.657 C 92.821 240.012,92.989 241.692,93.395 241.848 C 95.198 242.540,97.060 241.886,96.955 240.600 L 96.875 239.625 95.114 239.553 C 94.146 239.513,93.274 239.560,93.177 239.657 M292.231 240.981 L 291.500 241.712 291.500 249.967 L 291.500 258.222 292.103 258.924 C 292.704 259.623,292.713 259.625,296.301 259.705 L 299.897 259.785 300.573 259.109 L 301.250 258.432 301.250 249.955 L 301.250 241.477 300.636 240.864 C 300.043 240.270,299.907 240.250,296.492 240.250 L 292.962 240.250 292.231 240.981 M93.106 243.585 C 92.685 244.681,93.099 245.625,94.000 245.625 C 95.327 245.625,95.385 243.424,94.061 243.297 C 93.520 243.244,93.199 243.341,93.106 243.585 M331.604 246.840 C 331.532 247.028,331.507 247.843,331.549 248.653 L 331.625 250.125 333.209 250.200 C 335.347 250.301,336.168 249.033,335.348 246.895 C 335.145 246.365,331.805 246.316,331.604 246.840 M35.529 250.908 C 34.791 251.425,34.250 252.708,34.250 253.944 C 34.250 255.967,32.759 256.390,32.253 254.511 C 31.821 252.906,30.502 252.968,30.499 254.593 C 30.492 258.281,26.584 261.267,23.749 259.749 C 23.089 259.396,23.002 259.679,23.168 261.657 L 23.314 263.397 28.157 263.386 C 30.820 263.380,33.000 263.291,33.000 263.188 C 33.000 263.084,33.424 263.000,33.941 263.000 C 37.056 263.000,37.750 261.628,37.750 255.463 L 37.750 250.500 36.931 250.500 C 36.480 250.500,35.849 250.683,35.529 250.908 M185.407 251.633 C 184.888 252.986,185.406 254.002,186.613 253.996 C 187.795 253.990,188.042 253.710,187.954 252.475 L 187.875 251.375 186.719 251.300 C 185.834 251.243,185.526 251.321,185.407 251.633 M248.310 251.540 C 247.913 251.937,247.906 254.306,248.300 254.700 C 248.626 255.026,251.441 255.110,251.911 254.809 C 252.085 254.697,252.183 253.985,252.161 253.000 L 252.125 251.375 250.372 251.303 C 249.224 251.255,248.513 251.337,248.310 251.540 M42.688 260.740 C 38.135 265.208,38.422 264.671,40.071 265.645 L 41.375 266.415 44.527 263.327 L 47.679 260.239 63.456 260.307 C 80.959 260.382,80.083 260.293,80.083 262.012 C 80.083 262.774,72.645 270.526,66.842 275.813 L 65.264 277.250 59.871 277.250 L 54.478 277.250 52.927 278.535 C 52.073 279.242,51.346 279.890,51.312 279.976 C 51.277 280.061,52.598 281.478,54.249 283.124 L 57.250 286.117 57.250 292.913 L 57.250 299.709 60.813 303.106 L 64.375 306.504 64.500 294.564 C 64.592 285.771,64.706 282.484,64.933 282.088 C 65.102 281.793,70.778 276.088,77.546 269.410 C 84.315 262.733,89.798 257.215,89.732 257.149 C 89.666 257.083,79.940 256.994,68.118 256.952 L 46.625 256.875 42.688 260.740 M63.558 262.566 C 62.100 264.069,62.487 264.500,65.295 264.500 C 67.196 264.500,68.911 263.402,68.704 262.318 C 68.522 261.368,64.533 261.560,63.558 262.566 M53.923 268.220 C 52.825 269.252,52.555 269.396,52.173 269.158 C 50.346 268.016,50.959 274.111,52.876 276.144 C 54.156 277.500,55.064 276.867,56.906 273.333 C 59.100 269.123,56.926 265.396,53.923 268.220 M223.853 269.125 C 223.509 270.493,223.888 271.000,225.250 271.000 C 226.365 271.000,226.506 270.937,226.647 270.375 C 226.991 269.007,226.612 268.500,225.250 268.500 C 224.135 268.500,223.994 268.563,223.853 269.125 M317.355 270.786 C 316.179 271.357,316.082 271.969,316.197 278.063 L 316.304 283.750 319.625 283.750 L 322.946 283.750 323.049 278.063 C 323.160 271.956,323.082 271.434,321.964 270.856 C 321.171 270.446,318.150 270.400,317.355 270.786 M40.166 286.680 C 40.075 289.675,40.001 293.222,40.001 294.563 L 40.000 297.000 41.566 297.000 L 43.133 297.000 46.125 294.000 L 49.117 291.000 51.934 291.000 L 54.750 291.000 54.750 289.066 L 54.750 287.133 51.836 284.210 L 48.921 281.288 47.648 281.801 C 45.386 282.713,42.620 282.526,40.478 281.318 C 40.396 281.272,40.256 283.685,40.166 286.680 M47.105 296.503 L 44.084 299.500 41.939 299.500 L 39.794 299.500 39.700 304.813 C 39.649 307.734,39.646 310.209,39.693 310.313 C 39.741 310.416,42.122 310.500,44.984 310.500 C 49.135 310.500,50.247 310.571,50.479 310.849 C 50.685 311.097,50.748 312.836,50.697 316.849 L 50.625 322.500 57.563 322.500 L 64.500 322.500 64.500 316.285 L 64.500 310.070 59.750 305.362 L 55.000 300.654 55.000 297.077 L 55.000 293.500 52.563 293.503 L 50.125 293.505 47.105 296.503 M25.869 304.749 C 25.769 307.636,25.701 310.083,25.718 310.186 C 25.736 310.290,26.959 310.375,28.438 310.375 L 31.125 310.375 31.059 307.250 C 31.022 305.531,30.928 303.084,30.848 301.813 L 30.703 299.500 28.378 299.500 L 26.052 299.500 25.869 304.749 M118.123 300.716 C 117.047 301.205,115.613 302.671,115.233 303.669 C 114.698 305.077,114.950 321.118,115.518 321.841 L 116.036 322.500 121.706 322.500 L 127.375 322.501 127.298 317.511 C 127.194 310.752,126.156 311.500,135.634 311.500 L 143.500 311.500 143.500 306.264 C 143.500 301.137,143.512 301.020,144.056 300.639 C 144.982 299.990,119.555 300.066,118.123 300.716 M145.500 300.750 C 145.933 301.183,146.000 301.583,146.000 303.750 L 146.000 306.250 147.875 306.250 L 149.750 306.250 149.750 303.639 C 149.750 301.225,149.792 300.999,150.306 300.639 C 150.822 300.277,150.654 300.250,147.931 300.250 L 145.000 300.250 145.500 300.750 M151.750 300.750 C 152.199 301.199,152.250 301.583,152.250 304.500 C 152.250 308.766,152.264 308.750,148.625 308.750 L 146.000 308.750 146.000 310.694 C 146.000 313.966,146.602 313.750,137.486 313.750 L 129.750 313.750 129.750 317.730 C 129.750 319.918,129.682 321.887,129.598 322.105 C 129.461 322.464,131.727 322.500,154.161 322.500 L 178.875 322.501 178.800 318.591 L 178.725 314.682 180.816 312.591 L 182.907 310.500 184.386 310.500 L 185.865 310.500 183.625 308.250 L 181.385 306.000 176.336 306.000 C 170.276 306.000,170.500 306.104,170.500 303.280 C 170.500 301.350,170.728 300.699,171.500 300.423 C 171.706 300.350,167.234 300.281,161.563 300.270 L 151.250 300.250 151.750 300.750 M172.500 300.750 C 172.867 301.117,173.000 301.583,173.000 302.500 L 173.000 303.750 177.816 303.750 L 182.632 303.750 186.000 307.125 L 189.368 310.500 193.684 310.500 L 198.000 310.500 198.000 305.764 C 198.000 301.154,198.015 301.018,198.556 300.639 C 199.061 300.285,197.896 300.250,185.556 300.250 L 172.000 300.250 172.500 300.750 M199.666 300.545 C 200.429 300.914,200.493 301.347,200.497 306.156 L 200.500 310.438 201.189 310.575 C 201.613 310.660,202.625 311.481,203.826 312.715 L 205.775 314.718 205.700 318.609 L 205.625 322.501 215.500 322.501 L 225.375 322.501 225.294 318.873 L 225.213 315.245 226.726 313.670 L 228.238 312.095 226.994 310.869 L 225.750 309.644 221.421 313.947 C 215.225 320.107,215.500 320.323,215.500 309.282 C 215.500 300.681,215.523 300.500,216.625 300.500 C 217.704 300.500,217.750 300.782,217.750 307.425 C 217.750 310.904,217.836 313.750,217.941 313.750 C 218.046 313.750,219.704 312.175,221.625 310.250 C 225.844 306.023,225.675 306.067,228.181 308.555 L 229.998 310.361 231.506 308.868 L 233.014 307.375 236.694 307.250 L 240.375 307.125 240.440 304.125 C 240.498 301.427,240.558 301.081,241.030 300.688 C 241.531 300.270,240.577 300.251,220.340 300.267 C 205.380 300.279,199.284 300.361,199.666 300.545 M242.194 300.639 C 242.849 301.098,243.073 308.577,242.450 309.200 C 242.242 309.408,240.952 309.500,238.259 309.500 L 234.368 309.500 231.075 312.813 L 227.781 316.125 227.703 319.313 L 227.625 322.501 249.446 322.500 C 270.943 322.500,271.264 322.493,271.009 322.016 C 270.580 321.216,270.680 316.461,271.139 315.806 L 271.528 315.250 281.514 315.250 L 291.500 315.250 291.500 313.190 L 291.500 311.129 296.935 305.690 L 302.371 300.250 294.479 300.250 L 286.588 300.250 282.731 304.145 C 278.063 308.860,278.251 308.750,274.871 308.750 C 270.104 308.750,270.087 308.297,274.684 303.691 L 278.118 300.250 276.228 300.250 L 274.338 300.250 270.481 304.145 C 265.813 308.860,266.001 308.750,262.621 308.750 C 257.854 308.750,257.837 308.297,262.434 303.691 L 265.868 300.250 263.978 300.250 L 262.088 300.250 258.231 304.145 C 253.548 308.875,253.764 308.750,250.280 308.750 C 245.639 308.750,245.629 308.296,250.176 303.708 L 253.602 300.250 247.620 300.250 C 242.135 300.250,241.685 300.282,242.194 300.639 M303.586 300.707 C 304.307 301.504,304.104 301.776,298.884 306.991 L 293.769 312.102 293.697 317.301 L 293.625 322.500 301.125 322.501 L 308.625 322.501 308.550 318.578 L 308.475 314.655 313.297 309.828 L 318.120 305.000 323.998 304.997 L 329.875 304.994 332.705 302.747 C 335.682 300.383,335.749 300.348,336.516 300.759 C 337.745 301.416,337.192 302.292,333.859 304.974 L 330.718 307.500 324.964 307.500 L 319.210 307.500 314.993 311.543 L 310.775 315.587 310.700 319.044 L 310.625 322.501 337.320 322.500 L 364.015 322.500 363.445 321.730 C 362.899 320.992,362.872 320.731,362.802 315.542 L 362.728 310.125 360.095 307.477 L 357.462 304.829 357.544 302.539 L 357.625 300.249 330.399 300.249 C 304.038 300.250,303.186 300.265,303.586 300.707 M359.707 301.964 L 359.788 303.678 361.237 305.112 L 362.686 306.546 362.865 305.336 C 363.224 302.900,364.357 301.481,366.549 300.724 L 367.875 300.266 363.750 300.258 L 359.625 300.249 359.707 301.964 M374.075 300.437 C 375.423 300.482,377.561 300.481,378.825 300.436 C 380.090 300.391,378.988 300.354,376.375 300.354 C 373.762 300.354,372.728 300.391,374.075 300.437 M294.136 303.114 C 295.540 304.518,294.067 306.752,292.236 305.994 C 290.432 305.247,290.934 302.500,292.875 302.500 C 293.231 302.500,293.799 302.776,294.136 303.114 M96.667 306.744 C 88.170 306.868,87.691 306.900,87.355 307.360 C 86.865 308.030,86.911 308.835,87.478 309.535 L 87.955 310.125 100.247 310.197 L 112.539 310.268 112.338 309.697 C 112.081 308.968,112.080 307.785,112.335 307.063 L 112.534 306.500 109.079 306.556 C 107.179 306.587,101.594 306.672,96.667 306.744 M327.016 311.009 C 327.745 311.398,327.731 314.963,326.999 315.626 C 325.891 316.629,325.250 315.824,325.250 313.430 C 325.250 310.873,325.675 310.291,327.016 311.009 M346.857 311.143 C 347.423 311.708,347.407 314.912,346.836 315.543 C 346.268 316.171,343.137 316.202,342.457 315.586 C 341.934 315.113,341.797 312.097,342.259 311.234 C 342.606 310.585,346.228 310.513,346.857 311.143 M25.348 316.266 C 25.128 319.726,25.134 319.789,25.687 320.309 C 25.996 320.599,26.384 321.210,26.550 321.668 L 26.850 322.500 29.437 322.500 L 32.023 322.500 31.966 321.393 C 31.934 320.785,32.041 320.127,32.203 319.931 C 32.436 319.650,32.394 319.481,31.999 319.124 C 31.588 318.752,31.500 318.354,31.500 316.871 C 31.500 315.880,31.428 314.548,31.341 313.910 L 31.182 312.750 28.376 312.750 L 25.571 312.750 25.348 316.266 M39.500 315.569 C 39.500 317.657,39.404 318.526,39.129 318.918 C 38.787 319.407,38.808 319.480,39.402 319.870 C 39.757 320.102,40.267 320.789,40.535 321.396 L 41.023 322.500 44.788 322.500 C 48.119 322.500,48.536 322.454,48.402 322.105 C 48.318 321.887,48.250 319.693,48.250 317.230 L 48.250 312.750 43.875 312.750 L 39.500 312.750 39.500 315.569 M323.500 315.250 C 323.902 315.652,324.000 316.083,324.000 317.452 C 324.000 319.908,323.851 320.037,321.121 319.948 L 318.875 319.875 318.802 317.629 C 318.713 314.899,318.842 314.750,321.298 314.750 C 322.667 314.750,323.098 314.848,323.500 315.250 M340.109 314.994 C 340.726 315.229,340.750 315.315,340.750 317.319 C 340.750 320.154,341.095 320.000,334.750 320.000 C 328.438 320.000,328.750 320.132,328.750 317.464 C 328.750 314.707,328.657 314.750,334.664 314.750 C 337.306 314.750,339.756 314.860,340.109 314.994 M350.698 317.366 C 350.790 319.768,349.928 320.828,348.800 319.700 C 348.471 319.371,348.382 315.812,348.691 315.350 C 349.581 314.018,350.610 315.052,350.698 317.366 M355.331 315.231 C 355.709 315.609,355.848 318.483,355.528 319.313 C 355.181 320.211,352.713 320.365,352.259 319.516 C 351.763 318.590,351.938 315.812,352.529 315.221 C 353.095 314.655,354.761 314.661,355.331 315.231 M147.136 316.614 C 148.607 318.085,147.047 320.330,145.154 319.468 C 143.836 318.867,143.798 316.919,145.091 316.292 C 145.951 315.876,146.482 315.960,147.136 316.614 M153.886 316.614 C 155.357 318.085,153.797 320.330,151.904 319.468 C 150.586 318.867,150.548 316.919,151.841 316.292 C 152.701 315.876,153.232 315.960,153.886 316.614 M273.250 319.730 C 273.250 320.818,273.182 321.887,273.098 322.105 C 272.962 322.461,273.872 322.500,282.286 322.501 L 291.625 322.501 291.545 320.126 L 291.466 317.750 282.358 317.750 L 273.250 317.750 273.250 319.730 " stroke="none" fill="#e33d55" fill-rule="evenodd"></path><path id="path1" d="M150.497 91.563 C 146.871 94.031,148.489 99.481,152.853 99.496 C 157.311 99.511,158.925 93.405,154.999 91.375 C 153.861 90.786,151.493 90.885,150.497 91.563 M138.569 103.913 C 137.029 104.459,135.360 106.405,135.002 108.072 C 134.812 108.958,134.747 113.092,134.799 121.000 L 134.875 132.625 250.188 132.688 L 365.500 132.751 365.500 120.367 C 365.500 110.543,365.430 107.818,365.163 107.179 C 364.616 105.875,363.483 104.719,362.135 104.092 L 360.875 103.505 250.250 103.522 C 152.717 103.537,139.500 103.584,138.569 103.913 M247.140 107.855 C 247.634 108.216,248.053 124.859,247.627 127.184 C 247.429 128.265,246.674 128.672,245.858 128.137 L 245.250 127.738 245.250 118.008 L 245.250 108.278 245.806 107.889 C 246.485 107.413,246.534 107.412,247.140 107.855 M276.059 108.107 C 276.470 108.707,276.278 127.686,275.857 128.107 C 275.396 128.568,275.141 128.593,274.484 128.241 C 273.981 127.972,273.703 108.831,274.191 108.100 C 274.589 107.505,275.649 107.508,276.059 108.107 M327.836 109.706 C 334.909 113.067,334.917 122.971,327.850 126.295 C 321.554 129.255,314.452 124.536,314.803 117.625 C 315.142 110.958,321.869 106.870,327.836 109.706 M349.948 109.010 C 359.242 111.154,359.755 123.993,350.658 126.789 C 344.161 128.786,337.646 122.925,339.011 116.313 C 340.069 111.193,345.035 107.877,349.948 109.010 M189.019 111.731 C 189.588 112.299,189.750 112.688,189.750 113.481 L 189.750 114.500 193.966 114.500 C 198.702 114.500,199.182 114.655,199.744 116.357 C 200.130 117.525,199.661 118.531,197.965 120.174 C 196.084 121.997,196.066 122.000,188.802 122.000 L 182.388 122.000 180.687 123.688 L 178.987 125.375 164.431 125.452 C 154.524 125.504,149.580 125.442,148.951 125.258 C 147.251 124.761,146.537 123.098,147.358 121.550 C 147.760 120.793,156.845 111.711,157.625 111.287 C 157.969 111.100,162.827 111.013,173.207 111.008 L 188.288 111.000 189.019 111.731 M240.500 116.000 C 241.141 116.641,241.212 119.336,240.611 120.194 C 240.149 120.854,224.443 121.093,223.800 120.450 C 223.289 119.939,223.402 116.082,223.938 115.770 C 224.880 115.221,239.930 115.430,240.500 116.000 M269.016 115.759 C 269.595 116.068,269.745 119.905,269.200 120.450 C 268.771 120.879,252.979 120.879,252.550 120.450 C 252.039 119.939,252.152 116.082,252.688 115.770 C 253.286 115.421,268.366 115.411,269.016 115.759 M297.857 115.893 C 298.487 116.522,298.415 120.144,297.766 120.491 C 296.866 120.973,281.755 120.832,281.207 120.336 C 280.522 119.716,280.551 116.699,281.250 116.000 C 281.939 115.311,297.177 115.213,297.857 115.893 M316.875 153.672 C 303.045 155.467,291.042 164.619,286.279 177.000 C 285.037 180.228,284.704 179.875,288.996 179.875 C 293.683 179.875,293.789 179.942,294.015 183.017 C 294.147 184.815,294.239 185.098,294.884 185.701 C 295.281 186.072,295.424 186.150,295.203 185.875 C 294.817 185.395,295.345 184.728,308.150 169.520 C 315.493 160.800,321.500 153.628,321.500 153.583 C 321.500 153.475,317.848 153.546,316.875 153.672 M335.144 156.688 C 335.197 156.928,335.694 159.713,336.248 162.875 C 336.802 166.037,337.319 168.934,337.397 169.313 C 337.528 169.943,337.637 170.001,338.707 170.008 C 340.516 170.020,341.250 170.850,341.250 172.884 C 341.250 174.918,342.361 175.750,345.078 175.750 C 347.974 175.750,348.500 176.291,348.500 179.265 C 348.500 181.096,348.554 181.302,349.229 182.059 L 349.958 182.875 353.729 182.959 C 358.193 183.059,358.009 183.213,357.124 180.114 C 354.490 170.887,347.212 162.204,338.221 157.563 C 335.482 156.148,334.994 156.009,335.144 156.688 M157.306 160.389 C 156.734 160.790,156.504 162.726,156.946 163.422 C 157.424 164.173,158.704 164.250,170.625 164.250 C 184.902 164.250,184.488 164.319,184.496 161.952 C 184.503 159.903,185.194 160.000,170.625 160.000 C 159.477 160.000,157.791 160.049,157.306 160.389 M188.864 160.614 C 186.998 162.479,188.467 164.250,191.880 164.250 C 195.126 164.250,195.742 163.911,195.742 162.125 C 195.742 160.339,195.126 160.000,191.880 160.000 C 189.662 160.000,189.430 160.047,188.864 160.614 M200.500 160.173 C 199.340 160.588,199.050 163.194,200.088 163.874 C 201.107 164.542,241.401 164.316,241.895 163.640 C 242.631 162.633,242.323 160.811,241.329 160.287 C 240.769 159.993,201.313 159.883,200.500 160.173 M246.465 160.478 C 246.001 160.854,245.875 161.199,245.875 162.094 C 245.875 164.251,245.025 164.125,259.531 164.125 L 272.294 164.125 272.772 163.535 C 273.418 162.737,273.407 161.157,272.750 160.500 C 271.986 159.736,247.406 159.716,246.465 160.478 M157.301 168.137 C 156.440 168.748,156.578 171.213,157.500 171.678 C 158.333 172.098,167.291 172.127,168.079 171.713 C 169.073 171.189,169.381 169.367,168.646 168.360 C 168.141 167.669,158.235 167.475,157.301 168.137 M219.267 167.937 C 205.578 168.014,206.250 167.912,206.250 169.914 C 206.250 172.114,205.527 172.000,219.500 172.000 L 231.750 172.000 231.750 169.875 C 231.750 168.706,231.666 167.777,231.563 167.810 C 231.459 167.843,225.926 167.900,219.267 167.937 M261.732 168.214 C 260.962 168.838,260.868 170.725,261.571 171.429 C 262.283 172.140,272.372 172.105,272.895 171.390 C 273.352 170.765,273.353 168.986,272.896 168.360 C 272.340 167.600,262.647 167.473,261.732 168.214 M173.164 168.457 C 172.569 169.115,172.618 170.868,173.250 171.500 C 173.738 171.988,174.083 172.000,187.636 172.000 L 201.523 172.000 202.136 171.386 C 202.854 170.669,202.954 169.403,202.361 168.556 L 201.972 168.000 187.775 168.000 C 174.338 168.000,173.555 168.024,173.164 168.457 M248.742 168.385 C 248.160 169.086,248.295 170.979,248.965 171.522 C 249.873 172.258,256.260 172.240,257.000 171.500 C 257.611 170.889,257.669 169.352,257.111 168.556 C 256.603 167.830,249.325 167.682,248.742 168.385 M159.758 175.687 C 157.147 175.792,156.750 176.069,156.750 177.783 C 156.750 179.551,157.094 179.699,161.438 179.796 L 165.001 179.875 165.000 177.688 L 165.000 175.500 163.438 175.551 C 162.578 175.579,160.922 175.640,159.758 175.687 M178.079 175.752 C 176.874 176.237,176.613 178.136,177.614 179.136 C 178.473 179.996,183.668 180.082,184.500 179.250 C 185.013 178.737,185.198 176.949,184.804 176.328 C 184.317 175.563,179.560 175.155,178.079 175.752 M222.625 175.678 C 218.162 175.773,217.265 176.271,217.886 178.309 C 218.330 179.762,218.268 179.750,225.289 179.750 L 231.750 179.750 231.750 177.625 L 231.750 175.500 228.813 175.554 C 227.197 175.584,224.412 175.640,222.625 175.678 M246.000 177.604 L 246.000 179.750 248.841 179.750 C 252.262 179.750,253.000 179.397,253.000 177.760 C 253.000 175.922,252.489 175.637,249.023 175.542 L 246.000 175.458 246.000 177.604 M189.139 176.306 C 188.581 177.102,188.639 178.639,189.250 179.250 C 189.726 179.726,190.083 179.750,196.750 179.750 C 204.788 179.750,204.750 179.760,204.750 177.664 C 204.750 175.728,204.844 175.750,196.682 175.750 C 189.573 175.750,189.526 175.753,189.139 176.306 M208.914 176.207 C 207.392 177.889,208.663 179.750,211.332 179.750 C 214.036 179.750,215.181 178.190,213.861 176.306 C 213.325 175.541,209.584 175.466,208.914 176.207 M327.731 178.981 C 327.007 179.705,327.000 179.738,327.000 182.622 C 327.000 185.942,327.162 186.414,328.384 186.643 C 329.821 186.913,330.000 187.418,330.000 191.200 L 330.000 194.538 330.731 195.269 C 331.380 195.918,331.633 196.000,332.997 196.000 C 336.195 196.000,336.250 195.849,336.250 186.987 L 336.250 179.950 335.400 179.100 L 334.550 178.250 331.506 178.250 C 328.474 178.250,328.458 178.253,327.731 178.981 M237.000 183.182 C 236.349 183.430,236.258 183.814,236.254 186.329 C 236.249 189.575,236.355 189.750,238.334 189.750 C 240.439 189.750,240.500 189.657,240.500 186.468 C 240.500 183.127,239.532 182.218,237.000 183.182 M256.550 188.050 C 256.385 188.215,256.250 188.980,256.250 189.750 C 256.250 191.505,256.500 191.750,258.294 191.750 C 259.562 191.750,259.789 191.673,260.151 191.120 C 260.635 190.381,260.513 188.321,259.965 187.973 C 259.454 187.649,256.893 187.707,256.550 188.050 M309.294 190.059 C 309.252 192.131,309.285 192.278,309.938 192.946 C 310.316 193.333,310.400 193.382,310.125 193.056 C 309.735 192.593,309.593 191.955,309.481 190.169 L 309.338 187.875 309.294 190.059 M178.441 199.729 L 177.625 200.459 177.625 203.167 L 177.625 205.875 180.055 206.000 C 183.465 206.175,183.345 205.990,183.500 211.321 L 183.625 215.625 185.892 215.696 C 187.992 215.762,188.206 215.723,188.809 215.164 C 190.553 213.548,189.711 209.500,187.630 209.500 C 186.429 209.500,186.250 208.889,186.250 204.805 C 186.250 199.346,185.984 199.000,181.778 199.000 C 179.347 199.000,179.229 199.026,178.441 199.729 M327.143 200.643 C 326.215 201.571,326.861 203.000,328.209 203.000 C 329.364 203.000,329.750 202.646,329.750 201.584 C 329.750 200.343,328.055 199.731,327.143 200.643 M267.300 209.550 C 266.777 210.073,266.916 212.688,267.484 212.991 C 268.146 213.346,270.332 213.318,270.700 212.950 C 271.171 212.479,271.093 209.589,270.605 209.402 C 269.911 209.136,267.611 209.239,267.300 209.550 M95.363 209.838 C 93.426 210.716,92.809 212.336,94.095 213.168 L 94.934 213.711 96.019 212.606 C 97.107 211.498,97.888 211.238,98.450 211.800 C 99.044 212.394,98.758 213.174,97.521 214.332 C 95.506 216.216,96.353 217.973,98.699 216.776 C 102.909 214.628,99.667 207.886,95.363 209.838 M199.014 210.109 C 198.483 210.748,198.790 212.086,199.527 212.344 C 201.043 212.873,202.235 211.622,201.508 210.265 C 201.177 209.646,199.486 209.540,199.014 210.109 M50.673 211.660 C 50.578 211.756,50.500 212.208,50.500 212.667 L 50.500 213.500 54.515 213.500 L 58.530 213.500 58.453 212.563 L 58.375 211.625 54.610 211.556 C 52.540 211.518,50.768 211.565,50.673 211.660 M88.625 214.391 C 87.849 214.792,86.920 215.594,87.393 215.454 C 87.540 215.411,87.934 215.688,88.268 216.072 C 89.191 217.130,90.245 216.593,90.248 215.063 C 90.250 213.857,89.921 213.721,88.625 214.391 M236.938 217.770 C 236.245 218.173,236.285 223.617,236.984 223.991 C 237.869 224.465,240.197 224.316,240.491 223.766 C 240.926 222.953,240.822 218.357,240.357 217.893 C 239.906 217.442,237.641 217.361,236.938 217.770 M345.509 219.484 C 345.366 219.750,345.250 220.376,345.250 220.875 C 345.250 222.503,345.544 222.750,347.482 222.750 C 349.427 222.750,349.500 222.679,349.500 220.780 C 349.500 219.233,349.216 219.000,347.334 219.000 C 346.041 219.000,345.722 219.084,345.509 219.484 M83.830 224.945 C 81.826 225.836,81.808 225.852,82.446 226.183 C 83.093 226.519,86.750 225.270,86.750 224.714 C 86.750 224.009,85.757 224.087,83.830 224.945 M165.924 224.799 C 165.555 225.076,165.487 225.431,165.549 226.756 L 165.625 228.375 167.209 228.450 C 168.162 228.495,168.934 228.408,169.147 228.232 C 169.544 227.902,169.632 225.596,169.269 225.022 C 168.955 224.527,166.505 224.363,165.924 224.799 M74.750 229.070 L 72.875 229.875 74.131 229.949 C 75.137 230.008,75.757 229.850,77.256 229.152 L 79.125 228.283 77.875 228.274 C 77.008 228.269,76.050 228.513,74.750 229.070 M279.914 229.783 C 279.031 230.296,278.750 231.557,278.750 235.000 C 278.750 239.840,279.044 240.333,282.080 240.565 C 283.395 240.665,283.923 240.826,284.392 241.266 L 285.000 241.837 285.000 251.802 C 285.000 264.746,284.793 264.250,290.205 264.250 C 294.406 264.250,295.250 263.729,295.250 261.134 L 295.250 259.750 294.106 259.750 C 293.174 259.750,292.826 259.614,292.231 259.019 L 291.500 258.288 291.500 250.000 L 291.500 241.712 292.231 240.981 C 292.826 240.386,293.174 240.250,294.106 240.250 L 295.250 240.250 295.250 235.576 L 295.250 230.902 294.578 230.201 L 293.906 229.500 287.141 229.508 C 282.796 229.512,280.210 229.611,279.914 229.783 M69.667 232.417 C 69.575 232.508,69.500 232.790,69.500 233.042 C 69.500 233.476,69.103 233.500,61.887 233.500 C 56.642 233.500,54.075 233.590,53.637 233.790 L 53.000 234.080 53.000 238.928 L 53.000 243.776 53.867 244.138 C 55.425 244.789,86.602 244.664,87.688 244.003 L 88.500 243.507 88.500 238.933 L 88.500 234.358 87.774 233.929 C 87.131 233.549,86.176 233.500,79.393 233.500 L 71.738 233.500 71.500 232.875 C 71.268 232.266,70.108 231.975,69.667 232.417 M63.200 234.300 C 63.586 234.686,63.586 235.564,63.200 235.950 C 62.262 236.888,56.750 236.183,56.750 235.125 C 56.750 234.067,62.262 233.362,63.200 234.300 M76.357 234.393 C 77.836 235.872,76.676 236.250,70.657 236.250 C 65.086 236.250,64.750 236.186,64.750 235.125 C 64.750 234.064,65.086 234.000,70.657 234.000 C 75.148 234.000,76.025 234.060,76.357 234.393 M82.107 234.393 C 83.129 235.415,82.238 236.250,80.125 236.250 C 78.054 236.250,77.369 235.679,78.009 234.484 C 78.353 233.840,81.485 233.771,82.107 234.393 M74.491 238.484 C 75.364 240.114,74.834 240.250,67.591 240.250 C 60.903 240.250,60.250 240.154,60.250 239.166 C 60.250 238.035,60.469 238.000,67.541 238.000 C 73.901 238.000,74.245 238.024,74.491 238.484 M80.295 238.624 C 80.777 239.682,80.019 240.250,78.125 240.250 C 76.231 240.250,75.473 239.682,75.955 238.624 C 76.222 238.039,76.357 238.000,78.125 238.000 C 79.893 238.000,80.028 238.039,80.295 238.624 M186.800 238.300 C 186.603 238.497,186.500 239.550,186.500 241.375 C 186.500 244.767,186.487 244.750,189.175 244.750 C 191.159 244.750,191.250 244.725,191.254 244.188 C 191.259 243.360,191.538 243.055,192.376 242.960 C 193.875 242.790,193.458 241.158,191.875 241.000 L 190.625 240.875 190.551 239.750 C 190.506 239.071,190.314 238.501,190.065 238.313 C 189.541 237.914,187.195 237.905,186.800 238.300 M141.402 240.395 C 141.114 241.145,141.235 245.885,141.550 246.200 C 141.718 246.368,142.522 246.500,143.375 246.500 C 145.431 246.500,145.500 246.394,145.500 243.250 C 145.500 241.522,145.396 240.496,145.200 240.300 C 144.725 239.825,141.590 239.904,141.402 240.395 M67.760 247.863 C 67.096 248.663,68.071 249.892,68.938 249.347 C 69.803 248.802,69.495 247.500,68.500 247.500 C 68.259 247.500,67.926 247.663,67.760 247.863 M57.260 248.863 C 56.596 249.663,57.571 250.892,58.438 250.347 C 59.303 249.802,58.995 248.500,58.000 248.500 C 57.759 248.500,57.426 248.663,57.260 248.863 M62.260 248.863 C 61.596 249.663,62.571 250.892,63.438 250.347 C 64.303 249.802,63.995 248.500,63.000 248.500 C 62.759 248.500,62.426 248.663,62.260 248.863 M225.885 252.595 C 225.213 253.132,225.136 253.351,225.044 254.965 C 224.901 257.496,225.058 257.929,226.227 258.244 C 227.384 258.555,227.500 258.798,227.500 260.915 C 227.500 263.327,228.229 264.000,230.842 264.000 C 234.075 264.000,234.445 263.294,234.482 257.050 C 234.510 252.251,234.272 251.999,229.704 252.001 C 226.841 252.002,226.573 252.044,225.885 252.595 M74.458 253.500 L 51.290 253.625 50.613 254.250 C 49.862 254.943,49.152 256.390,49.382 256.761 C 49.474 256.910,57.198 257.003,69.827 257.009 L 90.125 257.018 77.562 269.446 C 70.270 276.660,64.894 282.170,64.749 282.579 C 64.597 283.009,64.500 287.872,64.500 295.076 L 64.500 306.869 60.875 303.250 L 57.250 299.631 57.250 292.882 L 57.250 286.132 54.210 283.085 L 51.169 280.037 52.618 278.706 C 53.415 277.974,54.165 277.337,54.284 277.292 C 54.712 277.127,54.490 276.720,54.048 276.860 C 53.377 277.073,52.333 275.840,51.718 274.108 C 50.622 271.020,50.903 268.351,52.236 269.183 C 52.611 269.418,52.873 269.267,53.894 268.231 C 56.674 265.408,59.024 268.798,57.139 272.914 C 56.360 274.617,56.356 274.500,57.190 274.500 C 58.123 274.500,66.116 266.593,65.859 265.924 C 65.712 265.540,65.075 265.500,59.164 265.500 L 52.631 265.500 48.966 269.159 L 45.302 272.817 44.526 271.746 C 43.665 270.558,43.579 270.250,44.106 270.250 C 44.798 270.250,46.044 268.979,45.727 268.597 C 45.393 268.195,44.310 268.145,43.406 268.488 C 42.831 268.707,42.716 268.625,42.028 267.507 C 41.541 266.716,40.855 266.042,40.076 265.590 C 39.416 265.206,38.740 264.761,38.575 264.601 C 37.671 263.725,34.741 263.377,28.500 263.403 C 14.601 263.460,10.764 266.728,13.857 275.875 C 14.651 278.222,14.923 278.620,14.792 277.238 C 14.488 274.052,16.425 272.787,16.887 275.869 C 17.149 277.613,16.760 278.857,15.922 278.955 L 15.235 279.035 15.867 279.787 C 16.489 280.525,16.500 280.613,16.501 284.707 C 16.502 286.999,16.574 289.788,16.661 290.904 C 16.897 293.942,16.103 293.750,28.462 293.750 L 38.722 293.750 39.347 293.188 C 40.145 292.469,40.719 281.299,39.925 281.959 C 38.139 283.440,32.727 276.210,34.249 274.376 C 34.815 273.694,35.212 273.979,36.135 275.735 C 39.053 281.289,43.131 283.459,47.498 281.780 L 48.870 281.252 51.943 284.314 L 55.015 287.375 54.945 289.125 L 54.875 290.875 51.940 291.000 L 49.006 291.125 46.062 294.063 L 43.117 297.000 41.592 297.000 L 40.066 297.000 39.925 298.051 C 39.734 299.477,39.766 299.500,41.926 299.500 L 43.822 299.500 47.010 296.500 L 50.199 293.500 52.599 293.500 L 55.000 293.500 55.000 297.065 L 55.000 300.630 59.440 305.065 C 61.882 307.504,64.020 309.500,64.190 309.500 C 64.429 309.500,64.500 310.995,64.500 316.000 L 64.500 322.500 69.369 322.500 L 74.238 322.500 73.994 321.859 C 73.860 321.506,73.750 318.581,73.750 315.359 L 73.750 309.500 69.550 309.500 C 65.143 309.500,64.750 309.408,64.750 308.375 C 64.750 307.333,65.128 307.250,69.863 307.249 L 74.375 307.247 80.177 301.624 L 85.979 296.000 95.006 296.000 C 104.720 296.000,105.000 296.035,105.000 297.250 C 105.000 298.461,104.702 298.500,95.327 298.500 L 86.621 298.500 81.444 303.688 L 76.267 308.875 76.196 315.688 L 76.125 322.500 90.584 322.500 L 105.043 322.500 105.327 321.750 C 105.549 321.161,105.761 321.000,106.315 321.000 L 107.021 321.000 106.037 320.063 C 104.158 318.274,104.120 315.713,105.946 313.888 C 106.750 313.084,106.782 313.000,106.292 313.000 C 105.802 313.000,105.750 312.868,105.750 311.634 L 105.750 310.268 96.853 310.197 L 87.955 310.125 87.478 309.535 C 86.911 308.835,86.865 308.030,87.355 307.360 C 87.691 306.900,88.166 306.869,96.667 306.750 L 105.625 306.625 105.689 283.156 C 105.764 255.318,105.945 256.754,102.374 256.751 C 101.124 256.750,101.121 256.748,100.574 255.563 C 100.014 254.348,99.402 253.810,98.267 253.532 C 97.914 253.446,87.200 253.431,74.458 253.500 M350.688 254.770 C 350.178 255.067,350.089 256.489,350.550 256.950 C 351.049 257.449,352.692 257.325,352.991 256.766 C 353.826 255.207,352.262 253.853,350.688 254.770 M99.858 261.841 C 101.425 262.867,101.498 263.244,101.498 270.250 C 101.498 279.555,101.952 279.125,92.125 279.125 C 84.533 279.125,84.039 279.016,83.152 277.146 C 82.632 276.052,82.599 272.081,83.099 270.929 C 83.642 269.681,91.454 262.049,92.641 261.607 C 94.061 261.079,98.937 261.237,99.858 261.841 M56.049 262.574 C 54.620 264.049,55.000 264.500,57.672 264.500 C 59.302 264.500,60.426 263.958,61.063 262.865 C 61.904 261.422,57.419 261.161,56.049 262.574 M219.300 262.550 C 218.434 263.416,219.123 265.002,220.363 264.996 C 221.673 264.990,222.235 264.151,221.763 262.908 C 221.486 262.179,219.901 261.949,219.300 262.550 M89.321 267.821 L 85.250 271.892 85.250 273.928 C 85.250 276.911,84.858 276.750,92.143 276.750 C 100.025 276.750,99.250 277.470,99.250 270.143 C 99.250 263.322,99.473 263.750,95.928 263.750 L 93.392 263.750 89.321 267.821 M71.694 264.433 C 72.282 264.486,73.182 264.485,73.694 264.432 C 74.206 264.378,73.725 264.335,72.625 264.336 C 71.525 264.337,71.106 264.381,71.694 264.433 M46.375 265.345 C 45.444 265.763,44.646 266.630,44.865 266.984 C 45.385 267.825,49.125 266.632,49.125 265.625 C 49.125 264.995,47.517 264.831,46.375 265.345 M150.500 265.320 C 149.316 265.911,149.001 267.036,149.000 270.671 L 149.000 273.967 141.431 274.046 L 133.863 274.125 132.198 274.945 C 127.715 277.153,127.171 278.706,127.053 289.636 C 126.949 299.261,127.021 299.690,128.661 299.114 L 129.375 298.864 129.502 290.119 L 129.630 281.375 130.306 280.088 C 131.998 276.869,133.231 276.500,142.295 276.500 L 149.250 276.500 149.250 277.500 L 149.250 278.500 143.225 278.500 C 138.305 278.500,137.051 278.571,136.385 278.887 C 134.511 279.776,134.533 282.505,136.421 283.471 C 136.818 283.674,151.330 283.750,189.609 283.750 L 242.250 283.750 242.250 281.125 L 242.250 278.500 200.750 278.500 L 159.250 278.500 159.250 277.500 L 159.250 276.500 200.750 276.500 L 242.250 276.500 242.250 275.250 L 242.250 274.000 201.032 274.000 L 159.814 274.000 159.652 272.777 C 159.436 271.151,158.736 270.294,157.453 270.089 C 156.008 269.857,155.249 269.111,155.076 267.750 C 154.775 265.397,152.628 264.256,150.500 265.320 M66.550 268.967 C 61.894 273.341,61.399 274.057,62.531 274.775 C 63.398 275.324,63.972 274.924,67.698 271.169 C 71.725 267.112,71.780 267.030,71.000 266.250 C 70.249 265.499,70.230 265.510,66.550 268.967 M301.213 267.607 C 300.569 269.020,301.691 270.129,303.223 269.594 C 303.960 269.336,304.267 267.998,303.736 267.359 C 303.217 266.733,301.536 266.898,301.213 267.607 M95.921 271.544 C 97.092 272.643,96.330 274.500,94.707 274.500 C 93.645 274.500,93.000 273.871,93.000 272.836 C 93.000 271.193,94.732 270.427,95.921 271.544 M251.917 274.167 C 251.825 274.258,251.750 274.821,251.750 275.417 L 251.750 276.500 284.000 276.500 L 316.250 276.500 316.250 275.250 L 316.250 274.000 284.167 274.000 C 266.521 274.000,252.008 274.075,251.917 274.167 M323.172 274.162 C 323.077 274.256,323.000 274.821,323.000 275.417 L 323.000 276.500 328.389 276.500 L 333.777 276.500 333.701 275.313 L 333.625 274.125 328.484 274.058 C 325.657 274.020,323.266 274.067,323.172 274.162 M349.932 274.152 C 349.832 274.252,349.750 276.452,349.750 279.042 L 349.750 283.750 356.588 283.750 C 363.282 283.750,363.444 283.738,364.267 283.183 C 365.858 282.111,365.796 279.978,364.145 278.971 C 363.442 278.543,362.789 278.502,356.688 278.501 L 350.000 278.500 350.000 277.487 L 350.000 276.474 357.938 276.550 L 365.875 276.625 367.172 277.309 C 370.300 278.958,370.500 279.714,370.500 289.867 C 370.500 298.978,370.543 299.250,371.969 299.250 C 372.995 299.250,373.027 298.934,372.949 289.460 C 372.858 278.279,372.467 277.120,368.055 274.947 L 366.387 274.125 358.250 274.047 C 353.775 274.005,350.032 274.052,349.932 274.152 M251.750 281.125 L 251.750 283.750 284.000 283.750 L 316.250 283.750 316.250 281.125 L 316.250 278.500 284.000 278.500 L 251.750 278.500 251.750 281.125 M323.000 281.125 L 323.000 283.750 328.375 283.750 L 333.750 283.750 333.750 281.125 L 333.750 278.500 328.375 278.500 L 323.000 278.500 323.000 281.125 M93.543 282.414 C 94.177 282.988,94.209 286.604,93.586 287.293 C 93.026 287.912,90.376 287.942,89.707 287.336 C 88.966 286.666,89.041 282.925,89.806 282.389 C 90.572 281.852,92.939 281.868,93.543 282.414 M75.950 282.550 C 76.422 283.022,76.348 286.867,75.857 287.357 C 74.811 288.404,74.147 287.649,74.040 285.291 C 73.919 282.624,74.783 281.383,75.950 282.550 M72.611 287.056 C 73.224 287.931,73.149 291.101,72.500 291.750 C 71.939 292.311,69.610 292.460,68.734 291.991 C 68.153 291.680,67.999 287.351,68.550 286.800 C 69.125 286.225,72.163 286.417,72.611 287.056 M87.793 286.914 C 88.162 287.248,88.250 287.706,88.250 289.289 C 88.250 292.278,88.303 292.250,82.750 292.250 C 77.209 292.250,77.250 292.272,77.250 289.332 C 77.250 286.429,77.113 286.500,82.707 286.500 C 86.663 286.500,87.402 286.560,87.793 286.914 M96.857 286.893 C 97.705 287.741,97.271 292.250,96.341 292.250 C 94.760 292.250,94.714 286.578,96.295 286.508 C 96.388 286.503,96.641 286.677,96.857 286.893 M101.229 286.850 C 101.893 287.650,101.462 291.834,100.688 292.105 C 99.071 292.673,98.634 292.146,98.553 289.532 C 98.470 286.850,98.637 286.500,100.000 286.500 C 100.516 286.500,101.069 286.657,101.229 286.850 M188.946 288.176 C 187.928 289.311,185.500 293.148,185.500 293.622 C 185.500 294.645,185.910 294.750,189.911 294.750 C 195.305 294.750,195.422 294.545,192.404 290.375 C 190.479 287.716,189.765 287.262,188.946 288.176 M246.931 290.048 C 244.547 293.484,244.607 293.362,244.946 294.106 L 245.239 294.750 249.236 294.750 C 254.728 294.750,254.887 294.457,251.684 290.250 C 249.209 287.000,249.049 286.994,246.931 290.048 M307.643 290.406 C 304.718 294.556,304.837 294.750,310.305 294.750 L 314.261 294.750 314.546 294.123 C 314.902 293.343,314.743 293.025,312.526 290.073 C 310.190 286.962,310.065 286.971,307.643 290.406 M27.020 298.566 C 25.701 299.239,26.110 299.500,28.479 299.500 C 30.926 299.500,31.356 299.228,29.883 298.612 C 28.827 298.171,27.826 298.155,27.020 298.566 M357.938 300.270 C 357.574 300.482,357.500 300.892,357.500 302.704 L 357.500 304.884 360.108 307.483 L 362.716 310.082 362.795 315.523 C 362.870 320.599,362.910 321.012,363.402 321.670 L 363.928 322.375 367.902 322.444 L 371.875 322.512 371.801 317.983 C 371.750 314.801,371.815 313.348,372.020 313.101 C 372.477 312.550,384.302 312.588,384.857 313.143 C 386.446 314.731,385.024 315.250,379.082 315.250 L 374.026 315.250 373.950 318.880 L 373.875 322.510 379.250 322.443 L 384.625 322.375 385.062 321.500 C 385.448 320.727,385.499 319.773,385.500 313.298 C 385.500 300.720,385.429 300.635,374.686 300.415 C 365.159 300.220,363.149 301.088,362.936 305.492 C 362.861 307.039,362.939 307.047,361.195 305.320 L 359.750 303.891 359.750 302.204 C 359.750 300.192,359.157 299.560,357.938 300.270 M144.000 300.750 C 143.533 301.217,143.500 301.583,143.500 306.375 L 143.500 311.500 135.634 311.500 C 126.226 311.500,127.250 310.818,127.250 317.088 C 127.250 322.513,127.247 322.500,128.500 322.500 C 129.740 322.500,129.750 322.463,129.750 317.730 L 129.750 313.750 137.486 313.750 C 146.602 313.750,146.000 313.966,146.000 310.694 L 146.000 308.750 148.625 308.750 C 152.322 308.750,152.314 308.760,152.207 304.366 C 152.133 301.367,152.073 300.981,151.625 300.643 C 150.337 299.672,149.750 300.645,149.750 303.750 L 149.750 306.250 147.898 306.250 L 146.046 306.250 145.960 303.635 C 145.886 301.372,145.808 300.970,145.375 300.643 C 144.719 300.148,144.592 300.158,144.000 300.750 M171.360 300.567 C 170.593 300.987,170.508 301.257,170.504 303.295 C 170.498 306.102,170.278 306.000,176.336 306.000 L 181.385 306.000 183.625 308.250 L 185.865 310.500 184.500 310.500 L 183.135 310.500 180.942 312.682 L 178.750 314.865 178.750 318.287 C 178.750 322.419,178.774 322.500,180.000 322.500 C 181.214 322.500,181.250 322.390,181.250 318.659 L 181.250 315.609 182.695 314.180 L 184.139 312.750 192.265 312.750 L 200.391 312.750 201.820 314.195 L 203.250 315.639 203.250 318.674 C 203.250 322.389,203.286 322.500,204.500 322.500 C 205.728 322.500,205.750 322.426,205.750 318.201 L 205.750 314.693 203.826 312.716 C 202.641 311.498,201.609 310.663,201.139 310.541 L 200.375 310.344 200.250 305.639 C 200.111 300.397,199.878 299.713,198.551 300.642 C 198.016 301.017,198.000 301.166,198.000 305.764 L 198.000 310.500 193.699 310.500 L 189.397 310.500 185.991 307.125 L 182.585 303.750 177.792 303.750 L 173.000 303.750 173.000 302.609 C 173.000 300.816,172.360 300.020,171.360 300.567 M241.051 300.642 C 240.533 301.005,240.500 301.216,240.500 304.139 L 240.500 307.250 236.912 307.250 L 233.324 307.250 231.810 308.750 C 229.961 310.582,230.277 310.603,228.108 308.500 C 225.638 306.105,225.807 306.060,221.625 310.250 C 219.704 312.175,218.046 313.750,217.941 313.750 C 217.836 313.750,217.750 310.904,217.750 307.425 C 217.750 300.741,217.709 300.500,216.584 300.500 C 215.572 300.500,215.500 301.095,215.500 309.445 C 215.500 320.312,215.227 320.104,221.424 313.944 L 225.756 309.637 227.031 310.912 L 228.307 312.188 227.134 313.268 C 225.389 314.877,225.250 315.278,225.250 318.717 C 225.250 322.386,225.288 322.500,226.500 322.500 C 227.705 322.500,227.750 322.371,227.750 318.914 L 227.750 316.118 231.066 312.809 L 234.382 309.500 238.285 309.500 C 243.137 309.500,242.782 309.873,242.694 304.872 C 242.617 300.462,242.337 299.742,241.051 300.642 M250.176 303.708 C 245.628 308.297,245.638 308.750,250.284 308.750 C 253.711 308.750,253.376 308.940,257.938 304.414 C 262.417 299.969,262.302 300.250,259.641 300.250 L 257.531 300.250 257.658 301.063 C 257.850 302.303,253.886 306.232,252.819 305.858 C 251.510 305.401,251.762 304.593,253.866 302.506 C 256.064 300.326,256.091 300.250,254.676 300.250 C 253.628 300.250,253.520 300.332,250.176 303.708 M262.426 303.708 C 258.970 307.195,258.678 307.643,259.393 308.357 C 259.861 308.826,264.505 308.922,265.671 308.488 C 266.342 308.238,274.000 300.839,274.000 300.441 C 274.000 300.336,273.047 300.250,271.881 300.250 L 269.762 300.250 269.917 301.022 C 270.225 302.560,265.515 306.665,264.550 305.700 C 263.862 305.012,264.237 304.206,266.168 302.221 L 268.087 300.250 266.969 300.250 C 265.865 300.250,265.811 300.291,262.426 303.708 M274.684 303.691 C 270.113 308.270,270.119 308.750,274.742 308.750 C 278.111 308.750,278.301 308.645,282.259 304.591 C 286.922 299.815,286.732 300.250,284.162 300.250 L 282.012 300.250 282.167 301.022 C 282.475 302.560,277.765 306.665,276.800 305.700 C 276.112 305.012,276.487 304.206,278.418 302.221 L 280.337 300.250 279.228 300.250 C 278.135 300.250,278.066 300.303,274.684 303.691 M296.935 305.690 L 291.500 311.129 291.500 313.190 L 291.500 315.250 281.514 315.250 L 271.528 315.250 271.139 315.806 C 270.680 316.461,270.580 321.216,271.009 322.016 C 271.337 322.630,272.872 322.694,273.098 322.105 C 273.182 321.887,273.250 320.818,273.250 319.730 L 273.250 317.750 282.366 317.750 L 291.481 317.750 291.553 320.063 L 291.625 322.375 292.625 322.375 L 293.625 322.375 293.693 317.252 L 293.761 312.129 298.880 306.989 C 304.303 301.544,304.211 301.663,303.611 300.806 C 302.922 299.822,302.460 300.161,296.935 305.690 M332.750 302.750 L 329.938 305.000 324.029 305.000 L 318.120 305.000 313.303 309.822 L 308.486 314.643 308.556 318.509 L 308.625 322.375 309.625 322.375 L 310.625 322.375 310.694 318.952 L 310.764 315.529 314.944 311.517 L 319.125 307.505 324.912 307.503 L 330.700 307.500 333.850 304.952 C 337.184 302.254,337.724 301.405,336.516 300.759 C 335.759 300.353,335.721 300.373,332.750 302.750 M292.059 302.759 C 290.710 303.301,290.861 305.478,292.283 305.974 C 293.741 306.482,295.070 305.125,294.523 303.686 C 294.124 302.636,293.216 302.294,292.059 302.759 M382.136 307.364 C 382.815 308.042,382.893 308.511,382.463 309.329 C 381.843 310.506,380.336 310.631,379.504 309.573 C 378.131 307.828,380.561 305.788,382.136 307.364 M25.500 311.625 L 25.500 312.750 28.375 312.750 L 31.250 312.750 31.250 311.625 L 31.250 310.500 28.375 310.500 L 25.500 310.500 25.500 311.625 M39.500 311.625 L 39.500 312.750 43.875 312.750 L 48.250 312.750 48.250 317.230 C 48.250 322.502,48.249 322.500,49.500 322.500 C 50.761 322.500,50.750 322.553,50.750 316.588 C 50.750 309.838,51.389 310.500,44.866 310.500 L 39.500 310.500 39.500 311.625 M90.195 313.188 C 88.935 315.636,88.761 317.898,89.697 319.678 C 90.420 321.054,90.411 321.085,89.313 320.882 C 85.130 320.108,84.103 315.594,87.649 313.567 C 88.560 313.045,90.410 312.770,90.195 313.188 M96.339 314.120 C 95.510 315.602,95.462 317.901,96.222 319.620 C 96.512 320.277,96.750 320.856,96.750 320.907 C 96.750 321.273,93.860 320.934,93.244 320.496 C 89.893 318.109,91.347 313.000,95.377 313.000 L 96.965 313.000 96.339 314.120 M102.952 314.063 C 101.976 315.922,102.149 318.295,103.445 320.813 C 103.795 321.492,100.465 320.954,99.596 320.191 C 96.580 317.543,98.044 313.000,101.914 313.000 L 103.510 313.000 102.952 314.063 M109.450 314.063 C 108.652 315.576,108.657 318.179,109.460 319.813 L 110.045 321.000 111.823 321.000 L 113.601 321.000 112.705 320.063 C 110.695 317.959,110.778 315.194,112.902 313.524 L 113.567 313.000 111.789 313.000 L 110.010 313.000 109.450 314.063 M145.091 316.287 C 143.763 316.944,143.846 318.918,145.225 319.490 C 146.599 320.059,147.943 318.946,147.626 317.503 C 147.370 316.339,146.160 315.758,145.091 316.287 M151.677 316.504 C 150.748 317.235,150.739 318.509,151.659 319.232 C 152.524 319.912,153.137 319.886,153.886 319.136 C 155.462 317.561,153.422 315.131,151.677 316.504 M187.250 317.000 C 186.612 317.638,186.589 319.026,187.207 319.586 C 187.930 320.240,196.739 320.203,197.336 319.543 C 197.955 318.859,197.876 317.366,197.194 316.889 C 196.253 316.230,187.927 316.323,187.250 317.000 M17.917 319.667 C 17.825 319.758,17.750 320.433,17.750 321.167 L 17.750 322.500 22.250 322.500 C 26.934 322.500,27.013 322.480,26.469 321.421 C 25.552 319.635,25.203 319.500,21.495 319.500 C 19.619 319.500,18.008 319.575,17.917 319.667 M32.300 319.800 C 32.135 319.965,32.000 320.640,32.000 321.300 L 32.000 322.500 36.487 322.500 L 40.974 322.500 40.713 321.750 C 40.569 321.338,40.136 320.663,39.750 320.250 L 39.049 319.500 35.825 319.500 C 33.650 319.500,32.502 319.598,32.300 319.800 " stroke="none" fill="#3494cc" fill-rule="evenodd"></path><path id="path2" d="M164.274 91.521 C 160.451 93.852,162.026 99.500,166.500 99.500 C 167.857 99.500,169.004 98.989,169.818 98.023 C 172.269 95.109,170.328 91.002,166.500 91.002 C 165.549 91.002,164.863 91.162,164.274 91.521 M245.806 107.889 L 245.250 108.278 245.250 118.008 L 245.250 127.738 245.858 128.137 C 246.674 128.672,247.429 128.265,247.627 127.184 C 248.053 124.859,247.634 108.216,247.140 107.855 C 246.534 107.412,246.485 107.413,245.806 107.889 M274.750 107.699 C 274.041 107.937,274.008 108.403,274.004 118.179 C 274.000 127.618,274.018 127.992,274.484 128.241 C 275.141 128.593,275.396 128.568,275.857 128.107 C 276.278 127.686,276.470 108.707,276.059 108.107 C 275.806 107.737,275.200 107.549,274.750 107.699 M223.938 115.770 C 223.402 116.082,223.289 119.939,223.800 120.450 C 224.443 121.093,240.149 120.854,240.611 120.194 C 241.212 119.336,241.141 116.641,240.500 116.000 C 239.930 115.430,224.880 115.221,223.938 115.770 M252.688 115.770 C 252.152 116.082,252.039 119.939,252.550 120.450 C 252.979 120.879,268.771 120.879,269.200 120.450 C 269.745 119.905,269.595 116.068,269.016 115.759 C 268.366 115.411,253.286 115.421,252.688 115.770 M281.250 116.000 C 280.551 116.699,280.522 119.716,281.207 120.336 C 281.755 120.832,296.866 120.973,297.766 120.491 C 298.415 120.144,298.487 116.522,297.857 115.893 C 297.177 115.213,281.939 115.311,281.250 116.000 M134.310 168.431 L 134.375 204.236 134.943 204.805 C 135.415 205.276,135.872 205.397,137.626 205.513 C 140.925 205.732,141.000 205.847,141.000 210.677 C 141.000 216.985,140.700 216.750,148.750 216.750 C 157.289 216.750,156.500 217.946,156.500 205.000 L 156.500 195.226 157.162 194.613 C 157.770 194.049,158.018 194.000,160.283 194.000 C 162.646 194.000,162.774 193.972,163.559 193.271 L 164.375 192.542 164.450 186.146 L 164.524 179.750 161.193 179.750 C 157.122 179.750,156.750 179.585,156.750 177.775 C 156.750 175.974,157.013 175.844,161.065 175.643 C 164.265 175.484,164.548 175.430,165.116 174.861 C 165.702 174.276,165.861 174.250,168.926 174.258 C 173.406 174.269,173.500 174.372,173.500 179.253 L 173.500 182.538 174.231 183.269 L 174.962 184.000 180.618 184.000 C 187.860 184.000,188.250 184.167,188.250 187.262 C 188.250 188.268,188.383 188.641,188.979 189.309 L 189.708 190.125 198.096 190.250 C 208.189 190.400,207.315 190.043,207.513 194.102 C 207.752 198.989,207.219 198.797,220.276 198.698 L 230.042 198.625 230.771 197.809 L 231.500 196.992 231.500 188.371 L 231.500 179.750 225.164 179.750 C 218.237 179.750,218.258 179.754,217.881 178.240 C 217.441 176.478,218.306 175.759,220.875 175.753 C 221.975 175.751,224.816 175.675,227.188 175.585 L 231.500 175.421 231.500 173.711 L 231.500 172.000 219.375 172.000 C 205.543 172.000,206.250 172.112,206.250 169.914 C 206.250 167.901,205.581 168.000,219.169 168.000 L 231.173 168.000 232.074 167.125 L 232.975 166.250 238.507 166.250 L 244.038 166.250 244.769 166.981 L 245.500 167.712 245.500 175.005 C 245.500 184.647,245.264 184.250,250.995 184.250 C 256.395 184.250,256.460 184.190,256.514 179.175 C 256.549 175.894,256.581 175.692,257.173 174.989 L 257.794 174.250 261.284 174.250 C 264.655 174.250,264.793 174.271,265.386 174.864 L 266.000 175.477 266.014 185.176 C 266.033 198.320,265.585 197.499,272.750 197.499 C 279.788 197.499,279.491 197.902,279.496 188.326 L 279.500 181.278 280.099 180.581 C 280.654 179.936,280.868 179.875,283.001 179.755 L 285.304 179.625 286.008 177.692 C 290.920 164.198,304.432 154.297,318.931 153.568 L 321.737 153.426 324.755 149.839 C 328.115 145.844,328.735 145.387,330.553 145.562 C 332.920 145.789,333.369 146.589,334.381 152.372 C 334.741 154.433,335.056 156.126,335.080 156.134 C 340.661 158.021,347.715 163.540,351.714 169.149 C 354.447 172.982,358.132 181.395,357.640 182.677 C 357.543 182.930,358.142 183.000,360.391 183.000 C 363.629 183.000,364.821 182.665,365.296 181.624 C 365.574 181.015,365.217 133.133,364.932 132.849 C 364.879 132.796,312.953 132.724,249.540 132.689 L 134.245 132.625 134.310 168.431 M167.682 144.818 C 168.371 145.507,168.375 145.533,168.375 148.875 C 168.375 153.646,168.430 153.596,162.964 153.705 C 156.889 153.826,156.750 153.719,156.750 148.928 C 156.750 144.054,156.855 143.972,162.932 144.064 L 166.990 144.125 167.682 144.818 M253.059 144.729 L 253.875 145.459 253.875 148.875 L 253.875 152.291 253.059 153.021 L 252.242 153.750 214.984 153.750 C 174.821 153.750,176.701 153.810,176.007 152.514 C 175.673 151.889,175.672 145.862,176.006 145.238 C 176.690 143.961,174.810 144.021,214.934 144.010 L 252.242 144.000 253.059 144.729 M287.147 144.826 C 287.720 145.493,287.750 145.696,287.750 148.908 L 287.750 152.288 287.019 153.019 L 286.288 153.750 274.757 153.750 C 260.331 153.750,261.250 154.082,261.250 148.875 C 261.250 143.651,260.291 143.991,274.834 144.065 L 286.544 144.125 287.147 144.826 M183.944 160.389 C 184.516 160.790,184.746 162.726,184.304 163.422 C 183.826 164.173,182.546 164.250,170.625 164.250 C 156.348 164.250,156.762 164.319,156.754 161.952 C 156.747 159.903,156.056 160.000,170.625 160.000 C 181.773 160.000,183.459 160.049,183.944 160.389 M194.829 160.287 C 195.596 160.691,195.742 160.985,195.742 162.125 C 195.742 163.911,195.126 164.250,191.880 164.250 C 189.046 164.250,188.250 163.784,188.250 162.125 C 188.250 160.246,192.497 159.060,194.829 160.287 M241.329 160.287 C 242.323 160.811,242.631 162.633,241.895 163.640 C 241.401 164.316,201.107 164.542,200.088 163.874 C 199.050 163.194,199.340 160.588,200.500 160.173 C 201.313 159.883,240.769 159.993,241.329 160.287 M272.750 160.500 C 273.407 161.157,273.418 162.737,272.772 163.535 L 272.294 164.125 259.531 164.125 C 245.025 164.125,245.875 164.251,245.875 162.094 C 245.875 159.898,245.201 160.000,259.653 160.000 C 271.917 160.000,272.263 160.013,272.750 160.500 M168.646 168.360 C 169.381 169.367,169.073 171.189,168.079 171.713 C 167.291 172.127,158.333 172.098,157.500 171.678 C 156.578 171.213,156.440 168.748,157.301 168.137 C 158.235 167.475,168.141 167.669,168.646 168.360 M272.896 168.360 C 273.353 168.986,273.352 170.765,272.895 171.390 C 272.372 172.105,262.283 172.140,261.571 171.429 C 260.868 170.725,260.962 168.838,261.732 168.214 C 262.647 167.473,272.340 167.600,272.896 168.360 M202.361 168.556 C 202.954 169.403,202.854 170.669,202.136 171.386 L 201.523 172.000 187.636 172.000 C 171.843 172.000,172.750 172.124,172.750 169.957 C 172.750 167.868,171.736 168.000,187.775 168.000 L 201.972 168.000 202.361 168.556 M257.111 168.556 C 257.669 169.352,257.611 170.889,257.000 171.500 C 256.260 172.240,249.873 172.258,248.965 171.522 C 248.295 170.979,248.160 169.086,248.742 168.385 C 249.325 167.682,256.603 167.830,257.111 168.556 M183.916 175.766 C 185.144 176.233,185.485 178.265,184.500 179.250 C 183.668 180.082,178.473 179.996,177.614 179.136 C 176.613 178.136,176.874 176.237,178.079 175.752 C 178.855 175.439,183.083 175.449,183.916 175.766 M252.523 176.215 C 254.237 178.334,252.763 179.750,248.841 179.750 L 246.000 179.750 246.000 177.604 L 246.000 175.458 249.023 175.542 C 251.847 175.620,252.077 175.664,252.523 176.215 M204.293 176.164 C 204.941 176.750,204.915 178.585,204.250 179.250 C 203.774 179.726,203.417 179.750,196.750 179.750 C 188.803 179.750,188.750 179.737,188.750 177.806 C 188.750 175.709,188.590 175.750,196.682 175.750 C 202.988 175.750,203.890 175.799,204.293 176.164 M213.861 176.306 C 215.181 178.190,214.036 179.750,211.332 179.750 C 208.663 179.750,207.392 177.889,208.914 176.207 C 209.584 175.466,213.325 175.541,213.861 176.306 M289.667 190.167 C 289.359 190.475,289.479 196.129,289.800 196.450 C 290.168 196.818,292.354 196.846,293.016 196.491 C 293.601 196.178,293.759 190.859,293.200 190.300 C 292.886 189.986,289.958 189.875,289.667 190.167 M311.932 193.930 C 312.376 193.986,313.163 193.987,313.682 193.932 C 314.201 193.878,313.837 193.833,312.875 193.832 C 311.913 193.831,311.488 193.875,311.932 193.930 M40.386 200.827 C 38.102 202.216,38.254 200.713,38.252 222.063 L 38.250 241.000 37.490 241.000 C 36.627 241.000,35.203 241.680,34.185 242.579 C 33.606 243.090,33.313 243.167,32.365 243.061 C 31.390 242.951,30.961 243.077,29.230 243.980 C 27.459 244.904,27.096 245.008,26.131 244.863 C 24.003 244.544,21.975 245.917,21.599 247.932 C 21.502 248.451,21.145 249.294,20.807 249.807 C 19.218 252.211,20.922 259.088,23.250 259.666 C 27.453 260.709,30.491 258.583,30.499 254.593 C 30.502 252.968,31.821 252.906,32.253 254.511 C 32.759 256.390,34.250 255.967,34.250 253.944 C 34.250 251.763,35.353 250.500,37.258 250.500 C 38.116 250.500,38.756 250.288,39.802 249.658 L 41.199 248.817 44.283 251.908 C 47.465 255.097,47.900 255.350,48.750 254.500 C 49.690 253.560,49.413 253.080,45.875 249.509 C 42.704 246.309,42.500 246.044,42.500 245.130 C 42.500 244.064,41.636 242.037,41.093 241.828 C 40.807 241.718,40.750 238.606,40.750 222.962 L 40.750 204.227 41.364 203.614 L 41.977 203.000 75.000 203.000 L 108.023 203.000 108.636 203.614 L 109.250 204.227 109.250 224.278 L 109.250 244.330 105.000 248.625 C 100.543 253.130,100.197 253.672,101.207 254.586 C 102.067 255.364,102.556 255.035,106.789 250.828 C 112.398 245.255,111.750 248.709,111.750 224.392 C 111.750 201.063,111.849 202.121,109.554 200.813 C 108.776 200.368,41.116 200.383,40.386 200.827 M201.358 202.829 C 201.284 203.023,201.257 203.843,201.299 204.653 L 201.375 206.125 202.959 206.200 C 205.056 206.299,205.292 206.084,205.198 204.148 L 205.125 202.625 203.309 202.551 C 201.928 202.496,201.460 202.562,201.358 202.829 M45.281 204.751 C 44.159 205.015,43.267 205.949,42.989 207.148 C 42.672 208.514,42.682 242.142,43.000 243.249 C 43.182 243.886,44.506 245.377,47.935 248.810 L 52.620 253.500 75.000 253.500 L 97.380 253.500 101.913 248.938 C 104.407 246.428,106.571 244.129,106.723 243.829 C 106.918 243.445,107.000 237.882,107.000 225.053 L 107.000 206.824 106.432 205.981 C 106.058 205.426,105.524 205.035,104.869 204.838 C 103.715 204.490,46.738 204.406,45.281 204.751 M172.339 205.982 C 171.054 206.539,171.000 206.865,171.000 214.009 L 171.000 220.656 171.701 221.328 L 172.402 222.000 177.429 222.000 L 182.456 222.000 183.115 221.216 L 183.775 220.432 183.622 214.153 C 183.448 206.978,183.436 206.881,182.684 206.398 C 182.007 205.964,173.196 205.609,172.339 205.982 M68.150 208.350 L 69.000 209.200 69.000 215.600 L 69.000 222.000 66.143 222.000 C 62.726 222.000,62.013 222.373,62.759 223.766 C 62.988 224.195,63.307 224.251,65.571 224.258 C 67.897 224.265,68.081 224.299,67.628 224.641 C 67.203 224.963,65.763 225.007,57.571 224.946 L 48.011 224.875 47.318 224.182 L 46.625 223.489 46.551 216.665 C 46.443 206.636,45.364 207.502,57.962 207.501 L 67.300 207.500 68.150 208.350 M98.966 210.183 C 101.818 212.295,100.710 217.250,97.385 217.250 C 97.080 217.250,96.999 217.575,96.995 218.813 C 96.978 223.482,92.057 226.888,87.860 225.135 C 87.022 224.785,86.904 224.806,85.069 225.642 C 83.333 226.434,83.089 226.485,82.473 226.186 L 81.794 225.857 83.709 225.009 C 84.763 224.543,85.661 224.136,85.705 224.105 C 85.748 224.074,85.402 223.548,84.935 222.937 C 80.834 217.564,86.151 210.324,92.688 212.381 C 93.104 212.512,93.250 212.458,93.250 212.173 C 93.250 210.196,97.150 208.838,98.966 210.183 M87.017 216.029 C 85.062 219.236,89.018 223.184,92.139 221.139 L 92.758 220.733 92.072 219.874 C 91.628 219.317,91.300 219.100,91.143 219.257 C 90.730 219.670,89.526 219.526,89.000 219.000 C 88.476 218.476,88.339 217.517,88.729 217.113 C 88.870 216.967,88.684 216.549,88.246 216.029 L 87.533 215.184 87.017 216.029 M272.050 215.550 C 271.561 216.039,271.679 217.445,272.234 217.741 C 273.464 218.400,274.750 217.782,274.750 216.532 C 274.750 215.612,274.326 215.250,273.250 215.250 C 272.755 215.250,272.215 215.385,272.050 215.550 M320.076 215.503 C 318.814 216.011,318.750 216.527,318.750 226.250 C 318.750 237.981,318.368 237.250,324.500 237.250 C 330.421 237.250,330.250 237.481,330.250 229.500 C 330.250 222.610,330.079 222.000,328.148 222.000 C 327.020 222.000,326.555 221.082,326.461 218.666 C 326.343 215.629,325.927 215.243,322.799 215.266 C 321.603 215.275,320.378 215.381,320.076 215.503 M49.414 216.457 C 48.819 217.114,48.814 221.528,49.407 222.121 C 49.999 222.713,59.404 222.300,59.808 221.665 C 60.175 221.088,60.023 217.143,59.611 216.556 C 59.060 215.769,50.115 215.682,49.414 216.457 M208.090 219.365 C 207.071 220.079,206.988 220.781,207.058 228.115 L 207.125 235.105 207.996 235.283 C 209.820 235.656,210.000 236.195,210.000 241.287 L 210.000 245.796 212.647 245.710 C 216.085 245.600,216.500 245.241,216.500 242.375 C 216.500 240.434,216.099 239.750,214.962 239.750 C 213.845 239.750,213.750 239.268,213.750 233.625 L 213.750 228.286 214.409 227.768 C 214.771 227.483,215.418 227.250,215.846 227.249 C 216.864 227.248,218.206 226.417,218.354 225.695 C 218.949 222.798,218.751 220.569,217.815 219.633 C 217.034 218.852,209.133 218.634,208.090 219.365 M67.626 226.501 C 68.001 226.915,68.030 227.110,67.795 227.626 L 67.511 228.250 63.680 228.250 C 59.633 228.250,59.250 228.149,59.250 227.087 C 59.250 226.181,59.922 226.016,63.649 226.008 C 66.863 226.001,67.212 226.044,67.626 226.501 M73.376 226.501 C 73.751 226.915,73.780 227.110,73.545 227.626 C 72.953 228.924,69.250 228.414,69.250 227.034 C 69.250 225.949,72.497 225.530,73.376 226.501 M77.375 229.121 L 75.625 229.958 77.138 229.979 C 78.754 230.001,79.250 230.275,79.250 231.144 C 79.250 232.096,78.742 232.233,74.954 232.306 L 71.317 232.375 71.525 232.938 L 71.734 233.500 79.391 233.500 C 86.176 233.500,87.131 233.549,87.774 233.929 L 88.500 234.358 88.500 238.933 L 88.500 243.507 87.688 244.003 C 86.602 244.664,55.425 244.789,53.867 244.138 L 53.000 243.776 53.000 238.928 L 53.000 234.080 53.637 233.790 C 54.075 233.590,56.635 233.500,61.858 233.500 L 69.442 233.500 69.561 232.875 L 69.681 232.250 67.640 232.250 C 65.489 232.250,65.000 232.041,65.000 231.125 C 65.000 230.117,65.426 230.000,69.115 230.000 C 72.581 230.000,72.658 229.988,74.628 229.128 C 76.068 228.499,76.974 228.260,77.875 228.270 L 79.125 228.284 77.375 229.121 M65.050 234.300 C 64.885 234.465,64.750 234.836,64.750 235.125 C 64.750 236.186,65.086 236.250,70.657 236.250 C 76.177 236.250,76.750 236.144,76.750 235.125 C 76.750 234.106,76.177 234.000,70.657 234.000 C 66.863 234.000,65.264 234.086,65.050 234.300 M98.543 234.414 C 99.206 235.014,99.245 246.065,98.586 246.793 C 97.997 247.443,92.167 247.479,91.457 246.836 C 90.794 246.236,90.755 235.185,91.414 234.457 C 92.003 233.807,97.833 233.771,98.543 234.414 M264.143 235.893 C 263.672 236.364,263.556 244.920,264.009 245.766 C 264.242 246.203,264.557 246.250,267.250 246.250 C 270.967 246.250,270.750 246.578,270.750 240.947 C 270.750 235.284,270.889 235.500,267.254 235.500 C 265.116 235.500,264.452 235.584,264.143 235.893 M75.955 238.624 C 75.473 239.682,76.231 240.250,78.125 240.250 C 80.019 240.250,80.777 239.682,80.295 238.624 C 80.028 238.039,79.893 238.000,78.125 238.000 C 76.357 238.000,76.222 238.039,75.955 238.624 M160.278 240.349 C 159.055 241.027,159.018 241.308,159.009 250.132 C 158.999 258.990,159.069 259.500,160.281 259.500 C 160.857 259.500,161.789 259.946,162.059 260.350 C 162.160 260.501,162.244 261.673,162.246 262.954 C 162.251 266.105,162.755 266.977,164.579 266.992 C 166.169 267.005,167.250 265.965,167.250 264.421 C 167.250 263.094,168.045 262.576,170.284 262.446 C 172.203 262.335,172.378 262.277,173.042 261.535 L 173.750 260.742 173.750 254.000 L 173.750 247.258 173.063 246.502 C 172.528 245.914,172.097 245.715,171.125 245.607 C 170.438 245.530,169.624 245.417,169.317 245.355 C 168.603 245.211,168.000 244.046,168.000 242.809 C 168.000 241.812,167.322 240.919,166.079 240.281 C 165.310 239.885,161.023 239.936,160.278 240.349 M192.334 242.929 C 191.459 243.039,191.366 243.184,191.123 244.803 C 190.895 246.320,191.337 246.750,193.125 246.750 C 194.810 246.750,195.250 246.355,195.250 244.841 C 195.250 242.812,194.932 242.603,192.334 242.929 M304.800 247.550 C 303.882 248.468,304.633 250.000,306.000 250.000 C 307.389 250.000,307.928 249.016,307.241 247.734 C 306.942 247.175,305.299 247.051,304.800 247.550 M69.240 247.863 C 69.904 248.663,68.929 249.892,68.063 249.347 C 67.197 248.802,67.505 247.500,68.500 247.500 C 68.741 247.500,69.074 247.663,69.240 247.863 M58.740 248.863 C 59.404 249.663,58.429 250.892,57.563 250.347 C 56.697 249.802,57.005 248.500,58.000 248.500 C 58.241 248.500,58.574 248.663,58.740 248.863 M63.740 248.863 C 64.404 249.663,63.429 250.892,62.563 250.347 C 61.697 249.802,62.005 248.500,63.000 248.500 C 63.241 248.500,63.574 248.663,63.740 248.863 M110.873 251.093 C 106.142 254.274,104.182 257.000,106.624 257.000 C 107.336 257.000,110.673 254.776,112.504 253.081 C 114.083 251.619,114.552 250.265,113.605 249.902 C 112.994 249.667,112.993 249.668,110.873 251.093 M277.759 251.234 C 277.616 251.500,277.500 252.118,277.500 252.609 C 277.500 253.492,277.491 253.500,276.425 253.500 C 275.010 253.500,274.750 253.817,274.750 255.541 C 274.750 257.379,274.963 257.500,278.190 257.500 C 281.568 257.500,281.750 257.314,281.750 253.846 C 281.750 250.862,281.671 250.750,279.584 250.750 C 278.291 250.750,277.972 250.834,277.759 251.234 M307.104 252.590 C 307.032 252.778,307.007 253.593,307.049 254.403 L 307.125 255.875 308.853 255.950 C 310.066 256.002,310.642 255.928,310.786 255.700 C 311.102 255.202,311.038 252.888,310.700 252.550 C 310.268 252.118,307.272 252.152,307.104 252.590 M153.652 255.395 C 153.155 256.689,153.675 257.500,155.000 257.500 C 156.032 257.500,156.500 257.140,156.500 256.345 C 156.500 255.219,156.256 255.000,155.000 255.000 C 154.140 255.000,153.761 255.111,153.652 255.395 M111.000 256.985 C 108.945 257.401,107.320 258.728,107.685 259.690 C 108.193 261.023,113.250 259.416,113.250 257.921 C 113.250 256.837,112.751 256.630,111.000 256.985 M338.691 257.479 L 337.875 258.208 337.791 261.917 C 337.695 266.152,337.515 266.577,335.683 266.886 C 335.114 266.982,334.396 267.331,334.046 267.681 L 333.423 268.304 333.587 272.817 C 333.676 275.299,333.750 278.775,333.750 280.540 L 333.750 283.750 341.718 283.750 L 349.687 283.750 349.872 274.495 C 350.098 263.195,350.047 263.000,346.868 263.000 C 345.037 263.000,344.250 262.060,344.250 259.875 C 344.250 256.851,340.975 255.439,338.691 257.479 M92.641 261.607 C 91.454 262.049,83.642 269.681,83.099 270.929 C 82.599 272.081,82.632 276.052,83.152 277.146 C 84.039 279.016,84.533 279.125,92.125 279.125 C 101.952 279.125,101.498 279.555,101.498 270.250 C 101.498 263.244,101.425 262.867,99.858 261.841 C 98.937 261.237,94.061 261.079,92.641 261.607 M49.625 262.216 C 48.495 262.730,47.879 263.352,48.118 263.739 C 48.384 264.170,50.021 264.034,51.149 263.489 C 53.640 262.282,52.173 261.057,49.625 262.216 M71.156 262.718 C 69.870 264.035,70.090 264.250,72.718 264.250 C 76.583 264.250,77.907 261.939,74.119 261.803 L 72.119 261.732 71.156 262.718 M98.857 264.143 C 99.191 264.477,99.250 265.379,99.250 270.143 C 99.250 277.470,100.025 276.750,92.143 276.750 C 84.858 276.750,85.250 276.911,85.250 273.928 L 85.250 271.892 89.321 267.821 L 93.392 263.750 95.928 263.750 C 97.900 263.750,98.552 263.837,98.857 264.143 M242.688 264.813 L 241.926 265.625 242.088 271.978 C 242.177 275.472,242.250 279.550,242.250 281.041 L 242.250 283.750 246.968 283.750 L 251.686 283.750 251.807 277.938 C 251.941 271.555,251.822 271.000,250.331 271.000 C 249.128 271.000,248.750 270.219,248.750 267.731 C 248.750 264.586,248.219 264.000,245.370 264.000 C 243.528 264.000,243.420 264.033,242.688 264.813 M254.296 264.216 C 254.084 264.351,253.995 264.814,254.046 265.525 C 254.181 267.404,256.750 267.241,256.750 265.353 C 256.750 264.205,255.343 263.553,254.296 264.216 M79.868 267.063 L 78.125 268.875 79.938 267.132 C 81.621 265.513,81.864 265.250,81.681 265.250 C 81.643 265.250,80.827 266.066,79.868 267.063 M93.500 271.500 C 92.862 272.138,92.839 273.526,93.457 274.086 C 94.545 275.070,96.500 274.240,96.500 272.794 C 96.500 271.300,94.543 270.457,93.500 271.500 M15.383 274.338 C 14.307 275.125,14.612 279.000,15.751 279.000 C 16.610 279.000,16.709 278.867,16.903 277.456 C 17.190 275.359,16.348 273.633,15.383 274.338 M34.249 274.376 C 32.752 276.180,38.135 283.444,39.889 281.988 C 40.509 281.474,40.299 281.002,38.660 279.232 C 37.785 278.287,36.654 276.723,36.146 275.757 C 35.212 273.981,34.817 273.692,34.249 274.376 M54.834 289.000 C 54.834 290.031,54.878 290.453,54.932 289.938 C 54.986 289.422,54.986 288.578,54.932 288.063 C 54.878 287.547,54.834 287.969,54.834 289.000 M39.285 293.258 C 38.447 293.957,18.511 294.030,17.523 293.338 L 16.936 292.927 17.099 304.776 C 17.189 311.293,17.327 317.272,17.406 318.063 L 17.549 319.500 21.374 319.500 L 25.198 319.500 25.354 315.813 C 25.440 313.784,25.560 311.394,25.620 310.500 C 25.680 309.606,25.806 306.759,25.899 304.173 C 26.109 298.328,26.806 297.326,29.795 298.576 L 30.698 298.953 30.851 301.789 C 30.935 303.349,31.058 306.144,31.124 308.000 C 31.577 320.709,31.114 319.500,35.533 319.500 C 39.775 319.500,39.406 320.305,39.600 310.625 C 39.685 306.363,39.826 300.597,39.913 297.813 C 40.000 295.028,40.027 292.754,39.973 292.758 C 39.919 292.763,39.609 292.988,39.285 293.258 M80.177 301.624 L 74.375 307.247 69.863 307.249 C 65.128 307.250,64.750 307.333,64.750 308.375 C 64.750 309.408,65.143 309.500,69.550 309.500 L 73.750 309.500 73.750 315.359 C 73.750 322.010,73.842 322.500,75.092 322.500 C 76.263 322.500,76.250 322.581,76.250 315.294 L 76.250 308.879 81.435 303.690 L 86.621 298.500 95.327 298.500 C 104.702 298.500,105.000 298.461,105.000 297.250 C 105.000 296.035,104.720 296.000,95.006 296.000 L 85.979 296.000 80.177 301.624 M45.366 298.063 L 44.125 299.375 45.438 298.134 C 46.657 296.982,46.865 296.750,46.678 296.750 C 46.639 296.750,46.048 297.341,45.366 298.063 M253.917 302.381 C 251.756 304.661,251.522 305.404,252.819 305.858 C 253.581 306.125,257.750 302.409,257.750 301.463 C 257.750 299.473,256.356 299.807,253.917 302.381 M266.168 302.221 C 263.895 304.558,263.589 306.000,265.368 306.000 C 265.990 306.000,270.000 302.063,270.000 301.453 C 270.000 299.475,268.559 299.764,266.168 302.221 M278.418 302.221 C 276.145 304.558,275.839 306.000,277.618 306.000 C 278.240 306.000,282.250 302.063,282.250 301.453 C 282.250 299.475,280.809 299.764,278.418 302.221 M200.353 305.875 C 200.354 308.350,200.391 309.329,200.436 308.050 C 200.482 306.771,200.482 304.746,200.436 303.550 C 200.390 302.354,200.353 303.400,200.353 305.875 M361.178 305.248 C 362.033 306.130,362.767 306.801,362.811 306.738 C 362.855 306.676,362.156 305.954,361.258 305.135 L 359.625 303.644 361.178 305.248 M63.125 305.500 C 63.802 306.188,64.412 306.750,64.481 306.750 C 64.550 306.750,64.052 306.188,63.375 305.500 C 62.698 304.813,62.088 304.250,62.019 304.250 C 61.950 304.250,62.448 304.813,63.125 305.500 M379.788 307.188 C 378.520 308.260,379.200 310.254,380.831 310.246 C 381.765 310.242,382.073 310.068,382.463 309.329 C 383.343 307.656,381.232 305.966,379.788 307.188 M314.750 311.625 C 314.143 312.244,313.702 312.750,313.771 312.750 C 313.840 312.750,314.393 312.244,315.000 311.625 C 315.607 311.006,316.048 310.500,315.979 310.500 C 315.910 310.500,315.357 311.006,314.750 311.625 M180.750 312.625 C 179.726 313.656,178.944 314.500,179.013 314.500 C 179.081 314.500,179.976 313.656,181.000 312.625 C 182.024 311.594,182.806 310.750,182.737 310.750 C 182.669 310.750,181.774 311.594,180.750 312.625 M182.696 314.188 L 181.282 315.625 181.204 319.063 L 181.125 322.501 192.250 322.501 L 203.375 322.501 203.296 319.063 L 203.218 315.625 201.804 314.188 L 200.391 312.750 192.250 312.750 L 184.109 312.750 182.696 314.188 M372.025 313.095 C 371.827 313.333,371.759 314.825,371.807 317.908 L 371.875 322.375 372.875 322.375 L 373.875 322.375 373.944 318.813 L 374.014 315.250 379.076 315.250 C 385.024 315.250,386.446 314.732,384.857 313.143 C 384.307 312.593,372.478 312.549,372.025 313.095 M87.649 313.567 C 84.103 315.594,85.130 320.108,89.313 320.882 C 90.411 321.085,90.420 321.054,89.697 319.678 C 88.761 317.898,88.935 315.636,90.195 313.188 C 90.410 312.770,88.560 313.045,87.649 313.567 M93.010 313.655 C 89.974 316.209,91.501 321.000,95.351 321.000 C 96.120 321.000,96.750 320.958,96.750 320.907 C 96.750 320.856,96.512 320.277,96.222 319.620 C 95.462 317.901,95.510 315.602,96.339 314.120 L 96.965 313.000 95.377 313.000 C 94.028 313.000,93.671 313.099,93.010 313.655 M99.627 313.543 C 96.552 315.962,98.175 321.000,102.030 321.000 C 102.861 321.000,103.498 320.916,103.445 320.813 C 102.149 318.295,101.976 315.922,102.952 314.063 L 103.510 313.000 101.914 313.000 C 100.654 313.000,100.172 313.114,99.627 313.543 M105.946 313.888 C 103.266 316.567,104.877 321.000,108.531 321.000 C 109.362 321.000,109.998 320.916,109.945 320.813 C 108.670 318.335,108.490 315.883,109.450 314.063 L 110.010 313.000 108.422 313.000 C 106.935 313.000,106.776 313.057,105.946 313.888 M112.902 313.524 C 111.512 314.617,110.815 317.183,111.530 318.579 C 112.111 319.715,113.582 321.000,114.301 321.000 L 115.000 321.000 115.000 317.000 L 115.000 313.000 114.284 313.000 C 113.890 313.000,113.268 313.236,112.902 313.524 M197.194 316.889 C 197.876 317.366,197.955 318.859,197.336 319.543 C 196.739 320.203,187.930 320.240,187.207 319.586 C 186.589 319.026,186.612 317.638,187.250 317.000 C 187.927 316.323,196.253 316.230,197.194 316.889 " stroke="none" fill="#3ca36c" fill-rule="evenodd"></path><path id="path3" d="M157.625 111.287 C 156.845 111.711,147.760 120.793,147.358 121.550 C 146.537 123.098,147.251 124.761,148.951 125.258 C 149.580 125.442,154.525 125.504,164.435 125.452 L 178.996 125.375 180.683 123.688 L 182.370 122.000 177.748 122.000 C 172.612 121.999,171.687 121.781,171.039 120.416 C 170.438 119.150,170.836 118.244,172.853 116.288 L 174.697 114.500 182.223 114.500 L 189.750 114.500 189.750 113.481 C 189.750 112.688,189.588 112.299,189.019 111.731 L 188.288 111.000 173.207 111.008 C 162.827 111.013,157.969 111.100,157.625 111.287 M322.473 112.624 C 320.853 113.505,320.426 115.780,321.616 117.194 L 322.232 117.926 321.260 118.218 C 319.585 118.719,318.569 120.441,318.792 122.398 L 318.875 123.125 324.000 123.125 L 329.125 123.125 329.208 122.250 C 329.394 120.294,328.465 118.825,326.614 118.147 C 326.070 117.948,325.772 117.777,325.952 117.768 C 326.475 117.739,327.292 115.631,327.093 114.823 C 326.563 112.670,324.337 111.611,322.473 112.624 M346.859 113.375 C 346.668 114.388,346.679 114.384,345.731 113.824 C 344.606 113.159,343.285 114.434,343.944 115.549 C 344.410 116.338,344.152 116.738,343.174 116.746 C 342.473 116.752,342.664 119.083,343.375 119.210 C 344.212 119.359,344.352 119.682,343.886 120.394 C 343.220 121.410,344.589 122.827,345.599 122.165 C 346.479 121.589,346.665 121.639,346.837 122.500 C 346.977 123.198,347.064 123.250,348.099 123.250 C 349.130 123.250,349.222 123.196,349.375 122.500 C 349.561 121.653,349.629 121.630,350.500 122.117 C 351.081 122.442,351.182 122.412,351.927 121.694 L 352.729 120.922 352.222 120.210 C 351.691 119.465,351.747 119.379,352.875 119.200 C 353.928 119.033,353.714 116.846,352.625 116.642 L 351.726 116.473 352.233 115.653 L 352.739 114.833 351.999 114.124 C 351.219 113.377,351.297 113.375,349.717 114.190 C 349.631 114.235,349.485 113.873,349.394 113.386 C 349.138 112.022,347.114 112.013,346.859 113.375 M166.882 114.799 C 168.896 115.716,168.717 117.585,166.387 119.969 L 164.525 121.875 161.224 121.958 C 157.267 122.058,156.507 121.939,155.653 121.085 C 154.183 119.615,155.448 116.771,158.375 114.965 C 159.286 114.402,165.736 114.276,166.882 114.799 M158.381 144.254 C 156.967 144.697,156.762 145.274,156.756 148.829 C 156.747 153.616,156.911 153.752,162.679 153.746 C 168.180 153.741,168.578 153.375,168.451 148.443 C 168.378 145.619,168.350 145.486,167.682 144.818 L 166.990 144.125 163.057 144.073 C 160.895 144.045,158.790 144.126,158.381 144.254 M176.956 144.428 C 175.048 145.612,175.219 152.661,177.176 153.468 C 177.696 153.683,187.424 153.740,215.182 153.691 L 252.489 153.625 253.182 152.932 C 254.704 151.410,254.210 145.174,252.500 144.320 C 251.407 143.773,177.842 143.879,176.956 144.428 M262.847 144.245 C 261.524 144.780,261.250 145.584,261.250 148.934 L 261.250 152.050 262.107 152.907 L 262.964 153.764 274.754 153.695 L 286.544 153.625 287.147 152.924 C 287.718 152.260,287.750 152.047,287.750 148.970 C 287.750 143.620,288.749 143.996,274.575 144.016 C 268.415 144.025,263.137 144.128,262.847 144.245 M47.941 207.887 C 46.585 208.632,46.500 209.124,46.500 216.250 C 46.500 223.424,46.584 223.893,47.992 224.621 C 49.068 225.177,66.906 225.188,67.640 224.633 C 68.077 224.302,67.876 224.265,65.612 224.258 C 63.036 224.250,62.500 224.071,62.500 223.218 C 62.500 222.216,63.145 222.000,66.143 222.000 L 69.000 222.000 69.000 215.629 L 69.000 209.258 68.271 208.441 L 67.541 207.625 58.083 207.568 C 50.058 207.519,48.521 207.568,47.941 207.887 M58.453 212.563 L 58.530 213.500 54.515 213.500 L 50.500 213.500 50.500 212.667 C 50.500 211.474,50.475 211.481,54.610 211.556 L 58.375 211.625 58.453 212.563 M66.070 212.945 C 67.822 214.715,67.829 214.529,65.945 216.431 C 64.056 218.336,64.187 218.332,62.430 216.555 C 60.678 214.785,60.671 214.971,62.555 213.069 C 64.444 211.164,64.313 211.168,66.070 212.945 M88.341 212.272 C 84.410 213.412,82.391 218.240,84.310 221.912 C 87.415 227.854,96.403 226.036,96.939 219.358 C 97.325 214.559,92.935 210.941,88.341 212.272 M91.745 214.438 C 93.031 215.084,93.750 216.309,93.749 217.849 C 93.746 221.873,88.881 223.239,87.046 219.732 C 85.294 216.383,88.478 212.796,91.745 214.438 M59.644 216.618 C 59.964 217.107,60.031 217.736,59.962 219.621 C 59.886 221.693,59.931 222.024,60.300 222.141 C 60.867 222.321,61.092 223.111,60.755 223.741 C 60.083 224.996,55.231 224.304,55.572 223.001 C 55.698 222.520,55.583 222.500,52.744 222.500 C 48.957 222.500,49.000 222.538,49.000 219.250 C 49.000 215.829,48.710 216.000,54.512 216.000 L 59.238 216.000 59.644 216.618 M89.018 216.909 C 87.776 218.487,89.834 220.416,91.250 219.000 C 92.156 218.094,91.401 216.250,90.125 216.250 C 89.787 216.250,89.316 216.530,89.018 216.909 M59.643 226.393 C 59.175 226.861,59.135 227.535,59.550 227.950 C 59.884 228.284,66.922 228.382,67.393 228.059 C 67.882 227.724,67.967 227.065,67.592 226.529 C 67.098 225.823,60.328 225.707,59.643 226.393 M69.624 226.501 C 69.249 226.915,69.220 227.110,69.455 227.626 C 69.951 228.714,73.750 228.415,73.750 227.288 C 73.750 226.018,70.604 225.418,69.624 226.501 M57.143 234.393 C 55.925 235.611,56.983 236.250,60.218 236.250 C 63.036 236.250,63.500 236.091,63.500 235.125 C 63.500 233.958,58.189 233.347,57.143 234.393 M78.009 234.484 C 77.369 235.679,78.054 236.250,80.125 236.250 C 81.735 236.250,82.500 235.888,82.500 235.125 C 82.500 233.964,78.586 233.405,78.009 234.484 M91.414 234.457 C 90.755 235.185,90.794 246.236,91.457 246.836 C 92.167 247.479,97.997 247.443,98.586 246.793 C 99.278 246.029,99.202 235.202,98.500 234.500 C 97.776 233.776,92.061 233.742,91.414 234.457 M95.951 236.813 L 96.027 238.000 94.514 238.000 L 93.000 238.000 93.000 236.917 C 93.000 235.540,93.092 235.462,94.615 235.551 L 95.875 235.625 95.951 236.813 M96.955 240.600 C 97.053 241.793,96.787 241.991,95.083 241.996 C 93.245 242.002,93.000 241.857,93.000 240.765 C 93.000 239.516,93.082 239.469,95.114 239.553 L 96.875 239.625 96.955 240.600 M94.875 244.500 C 94.875 246.039,93.190 246.305,93.045 244.789 C 92.923 243.512,93.131 243.207,94.061 243.297 C 94.847 243.372,94.875 243.413,94.875 244.500 M44.547 263.340 L 41.418 266.442 42.090 267.587 C 42.707 268.641,42.812 268.714,43.397 268.492 C 44.309 268.145,45.392 268.194,45.727 268.597 C 46.044 268.979,44.798 270.250,44.106 270.250 C 43.579 270.250,43.665 270.558,44.526 271.746 L 45.302 272.817 48.966 269.159 L 52.631 265.500 59.164 265.500 C 65.075 265.500,65.712 265.540,65.859 265.924 C 66.132 266.636,58.117 274.500,57.119 274.500 C 56.446 274.500,54.500 276.446,54.500 277.119 C 54.500 277.191,56.922 277.250,59.882 277.250 L 65.264 277.250 66.842 275.813 C 72.645 270.526,80.083 262.774,80.083 262.012 C 80.083 260.293,80.959 260.382,63.454 260.307 L 47.675 260.239 44.547 263.340 M52.375 262.375 C 52.375 263.350,48.639 264.582,48.139 263.773 C 47.648 262.978,49.758 261.696,51.375 261.806 C 52.185 261.862,52.375 261.970,52.375 262.375 M61.099 262.146 C 61.527 263.263,59.726 264.500,57.672 264.500 C 55.000 264.500,54.620 264.049,56.049 262.574 C 56.990 261.604,60.768 261.284,61.099 262.146 M68.704 262.318 C 68.911 263.402,67.196 264.500,65.295 264.500 C 62.487 264.500,62.100 264.069,63.558 262.566 C 64.533 261.560,68.522 261.368,68.704 262.318 M76.249 262.124 C 77.007 263.037,74.811 264.500,72.685 264.500 C 70.029 264.500,69.576 263.710,71.407 262.269 C 72.249 261.607,75.734 261.503,76.249 262.124 M49.125 265.625 C 49.125 266.632,45.385 267.825,44.865 266.984 C 44.775 266.838,44.909 266.485,45.163 266.200 C 46.246 264.985,49.125 264.567,49.125 265.625 M71.000 266.250 C 71.780 267.030,71.725 267.112,67.698 271.169 C 63.972 274.924,63.398 275.324,62.531 274.775 C 61.399 274.057,61.894 273.341,66.550 268.967 C 70.230 265.510,70.249 265.499,71.000 266.250 M134.000 276.884 C 132.482 277.355,131.124 278.533,130.305 280.088 L 129.627 281.375 129.543 290.077 L 129.460 298.779 128.855 299.055 C 128.522 299.206,128.250 299.538,128.250 299.791 C 128.250 300.238,131.879 300.252,250.125 300.249 C 371.680 300.246,372.000 300.245,372.000 299.748 C 372.000 299.474,371.887 299.250,371.750 299.250 C 370.569 299.250,370.500 298.728,370.500 289.867 C 370.500 279.714,370.300 278.958,367.172 277.309 L 365.875 276.625 357.938 276.550 L 350.000 276.474 350.000 277.487 L 350.000 278.500 356.688 278.501 C 362.789 278.502,363.442 278.543,364.145 278.971 C 365.796 279.978,365.858 282.111,364.267 283.183 L 363.426 283.750 250.197 283.750 C 167.294 283.750,136.821 283.675,136.421 283.471 C 134.533 282.505,134.511 279.776,136.385 278.887 C 137.051 278.571,138.305 278.500,143.225 278.500 L 149.250 278.500 149.250 277.500 L 149.250 276.500 142.188 276.517 C 136.885 276.530,134.845 276.622,134.000 276.884 M159.250 277.500 L 159.250 278.500 200.750 278.500 L 242.250 278.500 242.250 277.500 L 242.250 276.500 200.750 276.500 L 159.250 276.500 159.250 277.500 M251.750 277.500 L 251.750 278.500 284.000 278.500 L 316.250 278.500 316.250 277.500 L 316.250 276.500 284.000 276.500 L 251.750 276.500 251.750 277.500 M323.000 277.500 L 323.000 278.500 328.375 278.500 L 333.750 278.500 333.750 277.500 L 333.750 276.500 328.375 276.500 L 323.000 276.500 323.000 277.500 M89.806 282.389 C 89.041 282.925,88.966 286.666,89.707 287.336 C 90.376 287.942,93.026 287.912,93.586 287.293 C 94.209 286.604,94.177 282.988,93.543 282.414 C 92.939 281.868,90.572 281.852,89.806 282.389 M74.234 282.780 C 73.487 284.176,74.157 287.733,75.170 287.746 C 76.166 287.759,76.818 283.418,75.950 282.550 C 75.473 282.073,74.546 282.197,74.234 282.780 M68.550 286.800 C 67.999 287.351,68.153 291.680,68.734 291.991 C 69.610 292.460,71.939 292.311,72.500 291.750 C 73.149 291.101,73.224 287.931,72.611 287.056 C 72.163 286.417,69.125 286.225,68.550 286.800 M77.664 286.957 C 77.354 287.299,77.250 287.898,77.250 289.332 C 77.250 292.272,77.209 292.250,82.750 292.250 C 88.303 292.250,88.250 292.278,88.250 289.289 C 88.250 286.435,88.380 286.500,82.707 286.500 C 78.539 286.500,78.036 286.546,77.664 286.957 M95.688 286.770 C 95.001 287.170,95.041 291.620,95.734 291.991 C 96.853 292.590,97.250 291.905,97.250 289.375 C 97.250 286.838,96.815 286.113,95.688 286.770 M98.771 286.850 C 98.107 287.650,98.538 291.834,99.313 292.105 C 100.929 292.673,101.366 292.146,101.447 289.532 C 101.530 286.850,101.363 286.500,100.000 286.500 C 99.484 286.500,98.931 286.657,98.771 286.850 M192.404 290.375 C 195.422 294.545,195.305 294.750,189.911 294.750 C 184.724 294.750,184.540 294.503,187.022 290.859 C 189.768 286.827,189.832 286.821,192.404 290.375 M251.684 290.250 C 254.887 294.457,254.728 294.750,249.236 294.750 L 245.239 294.750 244.946 294.106 C 244.607 293.362,244.547 293.484,246.931 290.048 C 249.049 286.994,249.209 287.000,251.684 290.250 M312.526 290.073 C 314.743 293.025,314.902 293.343,314.546 294.123 L 314.261 294.750 310.305 294.750 C 304.837 294.750,304.718 294.556,307.643 290.406 C 310.065 286.971,310.190 286.962,312.526 290.073 M325.550 311.050 C 324.907 311.693,325.165 315.472,325.874 315.795 C 327.011 316.313,327.500 315.539,327.500 313.220 C 327.500 310.969,326.615 309.985,325.550 311.050 M342.259 311.234 C 341.797 312.097,341.934 315.113,342.457 315.586 C 343.137 316.202,346.268 316.171,346.836 315.543 C 347.407 314.912,347.423 311.708,346.857 311.143 C 346.228 310.513,342.606 310.585,342.259 311.234 M319.162 315.067 C 318.796 315.334,318.740 315.733,318.802 317.629 L 318.875 319.875 321.121 319.948 C 323.851 320.037,324.000 319.908,324.000 317.452 C 324.000 316.083,323.902 315.652,323.500 315.250 C 322.905 314.655,319.900 314.528,319.162 315.067 M329.306 315.139 C 328.663 315.590,328.465 319.115,329.050 319.700 C 329.265 319.915,330.883 320.000,334.750 320.000 C 341.095 320.000,340.750 320.154,340.750 317.319 C 340.750 315.315,340.726 315.229,340.109 314.994 C 338.973 314.562,329.956 314.683,329.306 315.139 M349.250 314.941 C 347.877 315.432,348.233 320.000,349.644 320.000 C 350.557 320.000,350.778 319.447,350.698 317.366 C 350.622 315.347,350.180 314.608,349.250 314.941 M352.529 315.221 C 351.938 315.812,351.763 318.590,352.259 319.516 C 352.713 320.365,355.181 320.211,355.528 319.313 C 355.848 318.483,355.709 315.609,355.331 315.231 C 354.761 314.661,353.095 314.655,352.529 315.221 " stroke="none" fill="#fafbfb" fill-rule="evenodd"></path><path id="path4" d="M252.058 273.250 C 252.058 273.731,252.109 273.928,252.172 273.688 C 252.235 273.447,252.235 273.053,252.172 272.813 C 252.109 272.572,252.058 272.769,252.058 273.250 M113.177 306.004 C 111.304 307.477,111.920 310.582,114.216 311.240 L 115.000 311.465 115.000 308.483 C 115.000 305.161,114.724 304.787,113.177 306.004 M7.597 322.857 C 7.522 323.053,7.497 323.475,7.543 323.794 L 7.625 324.375 201.578 324.438 L 395.530 324.500 395.453 323.563 L 395.375 322.625 201.555 322.562 C 33.809 322.508,7.716 322.548,7.597 322.857 " stroke="none" fill="#142463" fill-rule="evenodd"></path></g></svg>